<?xml version="1.0" encoding="utf-8"?>
<!-- Generator: Adobe Illustrator 18.1.1, SVG Export Plug-In . SVG Version: 6.00 Build 0)  -->
<svg version="1.1" id="Layer_1" xmlns="http://www.w3.org/2000/svg" xmlns:xlink="http://www.w3.org/1999/xlink" x="0px" y="0px"
	 viewBox="9.2 312.4 596.7 150.3" enable-background="new 9.2 312.4 596.7 150.3" xml:space="preserve">
<g>
	<path fill="#00853F" d="M191.2,326.1c-0.1-2.2-0.6-3.4-2.8-3.8c-0.5-0.1-1.7-0.2-2.6-0.2c-0.7,0-1.2-0.1-1.2-0.6
		c0-0.4,0.4-0.6,1.5-0.6c3.5,0,7.7,0.2,9.6,0.2c2.7,0,6.6-0.2,9.7-0.2c8.3,0,11.3,2.8,12.5,3.8c1.5,1.4,3.4,4.4,3.4,7.9
		c0,9.5-7,16.1-16.4,16.1c-0.3,0-1.1,0-1.4-0.1c-0.3-0.1-0.8-0.1-0.8-0.6s0.4-0.7,1.9-0.7c3.7,0,9-4.2,9-11c0-2.2-0.2-6.6-3.9-10
		c-2.4-2.2-5.2-2.6-6.6-2.6c-0.9,0-2,0.1-2.6,0.3c-0.3,0.1-0.5,0.5-0.5,1.3v26.8c0,6.1,0,11.4,0.3,14.2c0.2,1.9,0.6,3.4,2.6,3.6
		c0.9,0.1,2.4,0.3,3.4,0.3c0.7,0,1.1,0.2,1.1,0.5c0,0.4-0.5,0.6-1.3,0.6c-4.4,0-8.7-0.2-10.3-0.2c-1.6,0-5.7,0.2-8.4,0.2
		c-0.8,0-1.4-0.2-1.4-0.6c0-0.3,0.3-0.5,1.1-0.5c0.9,0,1.8-0.1,2.4-0.3c1.4-0.3,1.7-1.7,1.9-3.7c0.3-2.8,0.3-8,0.3-14.2v-11.6
		C191.4,340.2,191.3,328.2,191.2,326.1z"/>
	<path fill="#00853F" d="M227.5,357c-0.3,0-0.4,0.1-0.5,0.4l-3.2,7.6c-0.6,1.4-0.8,2.8-0.8,3.5c0,0.9,0.5,1.6,2.3,1.6h0.8
		c0.7,0,0.8,0.3,0.8,0.6c0,0.4-0.3,0.6-0.9,0.6c-1.9,0-4.6-0.2-6.5-0.2c-0.6,0-3.7,0.2-6.8,0.2c-0.7,0-1.1-0.1-1.1-0.6
		c0-0.3,0.2-0.6,0.6-0.6c0.5,0,1.2-0.1,1.7-0.1c2.6-0.4,3.7-2.1,4.9-5l15.4-35.7c0.6-1.6,1.2-2.2,1.7-2.2c0.8,0,1.2,0.5,1.7,1.8
		c1.4,3.2,11.2,26.4,15,34.9c2.2,5.2,3.9,5.9,5,6.1c0.8,0.1,1.6,0.2,2.2,0.2c0.5,0,0.8,0.2,0.8,0.6c0,0.4-0.3,0.6-2.5,0.6
		c-2.1,0-6.3,0-11.3-0.1c-1.1-0.1-1.7-0.1-1.7-0.4s0.1-0.5,0.7-0.6c0.4-0.1,0.8-0.6,0.5-1.3l-4.5-11.4c-0.1-0.3-0.3-0.4-0.6-0.4
		h-13.7V357z M239.9,354c0.3,0,0.3-0.1,0.3-0.3l-5.5-14.4c-0.1-0.2-0.1-0.5-0.3-0.5c-0.2,0-0.3,0.3-0.3,0.5l-5.7,14.4
		c-0.1,0.3,0,0.4,0.2,0.4h11.3V354z"/>
	<path fill="#00853F" d="M266.4,331.9l-8.8,0.2c-3.4,0.1-4.9,0.4-5.7,1.7c-0.6,0.8-0.8,1.6-0.9,1.9c-0.1,0.4-0.3,0.7-0.6,0.7
		s-0.5-0.3-0.5-0.9c0-0.9,1.2-6.4,1.3-6.9c0.1-0.7,0.3-1.1,0.6-1.1c0.4,0,1.1,0.4,2.5,0.6c1.7,0.2,3.9,0.3,5.9,0.3h23.8
		c1.9,0,3.2-0.1,4-0.3c0.9-0.1,1.4-0.3,1.6-0.3c0.4,0,0.4,0.3,0.4,1.2c0,1.2-0.1,5.4-0.1,6.9c-0.1,0.6-0.2,0.9-0.5,0.9
		c-0.4,0-0.6-0.3-0.6-1.2l-0.1-0.6c-0.1-1.5-1.7-3.2-7-3.3l-7.4-0.1v22.9c0,5.2,0.1,9.7,0.3,12.1c0.2,1.6,0.5,2.6,2.2,3
		c0.8,0.1,2.1,0.2,3,0.2c0.6,0,0.9,0.3,0.9,0.6c0,0.4-0.4,0.6-1.2,0.6c-3.9,0-7.8-0.2-9.5-0.2c-1.4,0-5.4,0.2-7.7,0.2
		c-0.7,0-1.2-0.2-1.2-0.6c0-0.3,0.2-0.6,0.9-0.6c0.8,0,1.6-0.1,2.1-0.2c1.2-0.3,1.6-1.4,1.7-3c0.3-2.4,0.3-6.9,0.3-12v-22.8H266.4z"
		/>
	<path fill="#00853F" d="M306.8,331.9l-8.8,0.2c-3.4,0.1-4.9,0.4-5.7,1.7c-0.6,0.8-0.8,1.6-0.9,1.9c-0.1,0.4-0.3,0.7-0.6,0.7
		c-0.4,0-0.5-0.3-0.5-0.9c0-0.9,1.2-6.4,1.3-6.9c0.1-0.7,0.3-1.1,0.6-1.1c0.4,0,1.1,0.4,2.5,0.6c1.7,0.2,3.9,0.3,5.9,0.3h23.8
		c1.9,0,3.2-0.1,4-0.3c0.9-0.1,1.4-0.3,1.6-0.3c0.4,0,0.4,0.3,0.4,1.2c0,1.2-0.1,5.4-0.1,6.9c-0.1,0.6-0.2,0.9-0.5,0.9
		c-0.4,0-0.6-0.3-0.6-1.2l-0.1-0.6c-0.1-1.5-1.7-3.2-7-3.3l-7.4-0.1v22.9c0,5.2,0.1,9.7,0.3,12.1c0.2,1.6,0.5,2.6,2.2,3
		c0.8,0.1,2.1,0.2,3,0.2c0.6,0,0.9,0.3,0.9,0.6c0,0.4-0.4,0.6-1.2,0.6c-3.9,0-7.8-0.2-9.5-0.2c-1.4,0-5.4,0.2-7.7,0.2
		c-0.7,0-1.2-0.2-1.2-0.6c0-0.3,0.2-0.6,0.9-0.6c0.8,0,1.6-0.1,2.1-0.2c1.2-0.3,1.6-1.4,1.7-3c0.3-2.4,0.3-6.9,0.3-12v-22.8H306.8z"
		/>
	<path fill="#00853F" d="M332.2,349.8c0-9.7,6.8-22.2,24.6-22.2c14.8,0,24.1,8.2,24.1,21.2c0,13-9.5,23.2-24.6,23.2
		C339.1,372,332.2,359.9,332.2,349.8z M372.1,350.9c0-12.6-7.5-20.3-17-20.3c-6.5,0-14.2,3.5-14.2,17.5c0,11.7,6.6,20.9,17.7,20.9
		C362.8,368.9,372.1,367,372.1,350.9z"/>
	<path fill="#00853F" d="M393.7,363.6c0.1,4.4,0.8,5.7,2,6.1c0.9,0.3,2.1,0.4,3.1,0.4c0.6,0,0.9,0.3,0.9,0.6c0,0.4-0.5,0.6-1.4,0.6
		c-3.8,0-6.5-0.2-7.6-0.2c-0.5,0-3.4,0.2-6.3,0.2c-0.8,0-1.4-0.1-1.4-0.6c0-0.3,0.4-0.6,0.9-0.6c0.8,0,1.9-0.1,2.6-0.3
		c1.6-0.4,1.7-1.9,1.8-6.9l0.5-33.7c0-1.2,0.4-1.9,0.9-1.9c0.7,0,1.6,0.8,2.5,1.9c0.7,0.7,9.5,9.7,18,18c4,3.9,11.8,11.9,12.7,12.8
		h0.3l-0.6-25.2c-0.1-3.5-0.6-4.4-2-5c-0.8-0.3-2.2-0.3-3.1-0.3c-0.7,0-0.9-0.3-0.9-0.6c0-0.4,0.6-0.5,1.5-0.5
		c3.1,0,6.2,0.1,7.5,0.1c0.6,0,2.8-0.1,5.7-0.1c0.8,0,1.4,0.1,1.4,0.5c0,0.3-0.3,0.6-0.9,0.6c-0.6,0-1.1,0-1.8,0.2
		c-1.6,0.4-2.1,1.5-2.1,4.6l-0.6,35.8c0,1.3-0.4,1.8-0.9,1.8c-0.9,0-1.8-0.6-2.4-1.2c-3.7-3.4-11-10.4-17.1-16.4
		c-6.4-6.1-12.6-13-13.7-14h-0.2L393.7,363.6z"/>
	<path fill="#00853F" d="M438.7,334c-1.4-3.2-2.2-3.7-4.3-4.2c-0.8-0.2-1.8-0.2-2.2-0.2c-0.5,0-0.6-0.3-0.6-0.6
		c0-0.4,0.6-0.5,1.5-0.5c3.2,0,6.4,0.1,8.5,0.1c1.5,0,4.5-0.1,7.5-0.1c0.7,0,1.4,0.1,1.4,0.5c0,0.4-0.4,0.6-0.9,0.6
		c-0.9,0-1.8,0.1-2.2,0.4c-0.4,0.3-0.6,0.6-0.6,1.2c0,0.7,0.5,2.2,1.4,4.2l9.9,25.4h0.2c2.5-5.9,10-24.2,11.5-27.9
		c0.3-0.7,0.5-1.6,0.5-2.1c0-0.6-0.3-0.8-0.8-0.9c-0.6-0.2-1.6-0.3-2.3-0.3c-0.5,0-0.9-0.2-0.9-0.6c0-0.4,0.5-0.5,1.7-0.5
		c3,0,5.5,0.1,6.2,0.1c0.9,0,3.7-0.1,5.5-0.1c0.7,0,1.2,0.1,1.2,0.5c0,0.4-0.3,0.6-0.9,0.6s-1.9-0.1-2.8,0.6c-0.7,0.5-1.6,1.4-3.1,5
		c-2.3,5.4-3.9,8.4-7.1,15.3c-3.7,8.2-6.4,14.5-7.8,17.3c-1.5,3.3-2,4.1-2.8,4.1c-0.8,0-1.3-0.7-2.4-3.4L438.7,334z"/>
	<path fill="#00853F" d="M485,344.9c0-8.7,0-10.2-0.1-12c-0.1-1.9-0.7-2.6-2-3c-0.6-0.2-1.4-0.3-2.1-0.3c-0.6,0-0.9-0.1-0.9-0.6
		c0-0.3,0.4-0.4,1.4-0.4c2.2,0,6.2,0.1,7.9,0.1c1.5,0,5.3-0.1,7.5-0.1c0.7,0,1.2,0.1,1.2,0.4c0,0.5-0.3,0.6-0.9,0.6
		s-1.1,0.1-1.7,0.2c-1.6,0.3-2.1,1.1-2.2,3.1c-0.1,1.8-0.1,3.4-0.1,12v10c0,5.5,0,10,0.3,12.5c0.2,1.6,0.6,2.4,2.3,2.6
		c0.8,0.1,2.1,0.2,3,0.2c0.6,0,0.9,0.3,0.9,0.6c0,0.4-0.4,0.6-1.2,0.6c-3.9,0-7.9-0.2-9.5-0.2c-1.4,0-5.4,0.2-7.7,0.2
		c-0.7,0-1.2-0.2-1.2-0.6c0-0.3,0.2-0.6,0.9-0.6c0.8,0,1.6-0.1,2.1-0.2c1.2-0.3,1.6-1.1,1.7-2.7c0.3-2.3,0.3-6.9,0.3-12.3L485,344.9
		z"/>
	<path fill="#00853F" d="M518.1,354.8c0,7.3,0,10.9,1.3,11.9c0.9,0.8,3.3,1.2,7.8,1.2c3.2,0,5.4-0.1,6.9-1.6
		c0.7-0.7,1.4-2.3,1.5-3.4c0.1-0.5,0.2-0.8,0.6-0.8s0.5,0.6,0.5,1.3c0,0.6-0.4,4.9-0.8,6.5c-0.4,1.3-0.6,1.6-3.7,1.6
		c-4.2,0-7.6-0.1-10.6-0.2c-3-0.1-5.4-0.1-7.8-0.1c-0.6,0-1.9,0.1-3.4,0.1c-1.4,0.1-2.8,0.1-4.1,0.1c-0.7,0-1.2-0.2-1.2-0.6
		c0-0.3,0.2-0.6,0.9-0.6c0.8,0,1.6-0.1,2.1-0.2c1.2-0.3,1.6-1.4,1.7-3c0.3-2.4,0.3-6.9,0.3-12v-10c0-8.7,0-10.2-0.1-12
		c-0.1-1.9-0.6-2.5-2.5-3.1c-0.4-0.1-1.2-0.2-1.9-0.2c-0.6,0-0.9-0.2-0.9-0.6c0-0.4,0.4-0.5,1.3-0.5c2.7,0,6.4,0.1,8,0.1
		c1.4,0,6.2-0.1,8.4-0.1c0.8,0,1.3,0.1,1.3,0.5c0,0.4-0.3,0.6-1.1,0.6c-0.6,0-1.6,0.1-2.2,0.2c-1.6,0.3-2.1,1.1-2.2,3.1
		c-0.1,1.8-0.1,3.4-0.1,12L518.1,354.8L518.1,354.8z"/>
	<path fill="#00853F" d="M553.1,354.8c0,7.3,0,10.9,1.3,11.9c0.9,0.8,3.3,1.2,7.8,1.2c3.2,0,5.4-0.1,6.9-1.6
		c0.7-0.7,1.4-2.3,1.5-3.4c0.1-0.5,0.2-0.8,0.6-0.8s0.5,0.6,0.5,1.3c0,0.6-0.4,4.9-0.8,6.5c-0.4,1.3-0.6,1.6-3.7,1.6
		c-4.2,0-7.6-0.1-10.6-0.2c-3-0.1-5.4-0.1-7.8-0.1c-0.6,0-1.9,0.1-3.4,0.1c-1.4,0.1-2.8,0.1-4.1,0.1c-0.7,0-1.2-0.2-1.2-0.6
		c0-0.3,0.2-0.6,0.9-0.6c0.8,0,1.6-0.1,2.1-0.2c1.2-0.3,1.6-1.4,1.7-3c0.3-2.4,0.3-6.9,0.3-12v-10c0-8.7,0-10.2-0.1-12
		c-0.1-1.9-0.6-2.5-2.5-3.1c-0.4-0.1-1.2-0.2-1.9-0.2c-0.6,0-0.9-0.2-0.9-0.6c0-0.4,0.4-0.5,1.3-0.5c2.7,0,6.4,0.1,8,0.1
		c1.4,0,6.2-0.1,8.4-0.1c0.8,0,1.3,0.1,1.3,0.5c0,0.4-0.3,0.6-1.1,0.6c-0.6,0-1.6,0.1-2.2,0.2c-1.6,0.3-2.1,1.1-2.2,3.1
		c-0.1,1.8-0.1,3.4-0.1,12V354.8z"/>
	<path fill="#00853F" d="M580.2,344.9c0-8.7,0-10.2-0.1-12c-0.1-1.9-0.6-2.5-2.5-3.1c-0.4-0.1-1.5-0.2-2.3-0.2
		c-0.6,0-0.9-0.2-0.9-0.6c0-0.4,0.4-0.5,1.4-0.5c3.1,0,6.8,0.1,8.4,0.1c1.9,0,14.9,0.1,16,0c1.1-0.1,2-0.3,2.4-0.3
		c0.3-0.1,0.6-0.3,0.9-0.3c0.3,0,0.4,0.3,0.4,0.5c0,0.4-0.3,1.1-0.4,3.7c-0.1,0.6-0.2,3.1-0.3,3.7c-0.1,0.3-0.2,0.9-0.6,0.9
		s-0.4-0.3-0.4-0.7s-0.1-1.4-0.4-2.1c-0.4-0.9-0.9-1.8-3.9-2.1c-0.9-0.1-8-0.3-9.2-0.3c-0.3,0-0.4,0.2-0.4,0.5v14
		c0,0.3,0.1,0.6,0.4,0.6c1.4,0,9,0,10.2-0.1c1.4-0.1,2.2-0.3,2.8-0.8c0.4-0.4,0.6-0.7,0.9-0.7c0.3,0,0.4,0.3,0.4,0.6
		c0,0.3-0.1,1.3-0.4,4.1c-0.1,1.2-0.3,3.4-0.3,3.8s-0.1,1.3-0.6,1.3c-0.4,0-0.5-0.2-0.5-0.4c-0.1-0.6-0.1-1.4-0.2-2.1
		c-0.3-1.2-1.1-2-3.3-2.2c-1.1-0.1-7.7-0.3-9.2-0.3c-0.3,0-0.3,0.3-0.3,0.6v4.5c0,1.9-0.1,6.8,0,8.4c0.1,3.9,1.9,4.7,7.9,4.7
		c1.6,0,4-0.1,5.5-0.7c1.5-0.6,2.1-1.9,2.5-4.2c0.1-0.6,0.3-0.8,0.6-0.8c0.4,0,0.5,0.7,0.5,1.4c0,1.3-0.4,5.2-0.8,6.2
		c-0.4,1.5-0.9,1.5-3.2,1.5c-4.4,0-7.9-0.1-10.8-0.2c-2.8-0.1-5.1-0.1-6.8-0.1c-0.6,0-1.9,0.1-3.4,0.1c-1.4,0.1-2.8,0.1-4.1,0.1
		c-0.7,0-1.2-0.2-1.2-0.6c0-0.3,0.2-0.6,0.9-0.6c0.8,0,1.6-0.1,2.1-0.2c1.2-0.3,1.6-1.4,1.7-3c0.3-2.4,0.3-6.9,0.3-12V344.9z"/>
</g>
<line fill="none" stroke="#000000" stroke-width="0.75" x1="186.2" y1="379.6" x2="605.9" y2="379.6"/>
<line fill="none" stroke="#000000" stroke-width="0.75" x1="186.2" y1="425.1" x2="605.9" y2="425.1"/>
<g>
	<path d="M232,400c0.4,0,0.8-0.1,1-0.2c0.2-0.1,0.3-0.4,0.3-0.8v-6.5c0-1-0.1-1.8-0.2-2.5c-0.1-0.7-0.4-1.3-0.7-1.7
		c-0.4-0.4-0.9-0.8-1.6-1c-0.7-0.2-1.6-0.4-2.7-0.5c-0.2,0-0.4-0.1-0.5-0.3c-0.1-0.2-0.2-0.4-0.2-0.6c0-0.2,0.1-0.4,0.2-0.5
		c0.1-0.2,0.3-0.2,0.5-0.2c1.2,0,2.5,0,4,0.1c1.5,0.1,2.9,0.1,4.2,0.1c0.8,0,1.5,0,2.2,0c0.7,0,1.3-0.1,2-0.1c0.6,0,1.3-0.1,1.9-0.1
		c0.7,0,1.4,0,2.1,0c0.2,0,0.4,0.1,0.5,0.2c0.1,0.2,0.1,0.3,0.1,0.5c0,0.2-0.1,0.4-0.2,0.6c-0.1,0.2-0.3,0.3-0.4,0.3
		c-1.1,0.1-2,0.2-2.7,0.4c-0.7,0.2-1.2,0.5-1.6,1c-0.4,0.4-0.6,1-0.7,1.7c-0.1,0.7-0.2,1.6-0.2,2.7v18.8c0,1.1,0.1,1.9,0.2,2.5
		c0.1,0.6,0.4,1.1,0.8,1.4c0.4,0.3,0.9,0.6,1.6,0.7c0.7,0.1,1.6,0.3,2.7,0.4c0.2,0,0.4,0.1,0.5,0.3c0.1,0.2,0.2,0.3,0.2,0.5
		c0,0.2-0.1,0.4-0.2,0.5c-0.1,0.2-0.3,0.2-0.6,0.2c-1.5,0-2.9-0.1-4.2-0.2c-1.3-0.1-2.7-0.2-4-0.2c-1.4,0-2.8,0.1-4.3,0.2
		c-1.5,0.1-2.8,0.2-4,0.2c-0.2,0-0.4-0.1-0.5-0.2c-0.1-0.2-0.2-0.3-0.2-0.5c0-0.2,0.1-0.4,0.2-0.5s0.3-0.3,0.5-0.3
		c1.1-0.1,2-0.2,2.7-0.4c0.7-0.1,1.2-0.4,1.6-0.7c0.4-0.3,0.6-0.8,0.8-1.4c0.1-0.6,0.2-1.4,0.2-2.5v-8c0-0.8-0.4-1.2-1.2-1.2h-16.4
		c-0.8,0-1.2,0.3-1.2,1v8.3c0,1.1,0.1,1.9,0.2,2.5c0.1,0.6,0.4,1.1,0.8,1.4c0.4,0.3,0.9,0.6,1.6,0.7c0.7,0.1,1.6,0.3,2.7,0.4
		c0.2,0,0.4,0.1,0.5,0.3c0.1,0.2,0.2,0.3,0.2,0.5c0,0.2-0.1,0.4-0.2,0.5c-0.1,0.2-0.3,0.2-0.6,0.2c-1.5,0-2.9-0.1-4.2-0.2
		c-1.3-0.1-2.7-0.2-4-0.2c-1.4,0-2.8,0.1-4.3,0.2c-1.5,0.1-2.8,0.2-4,0.2c-0.2,0-0.4-0.1-0.5-0.2c-0.1-0.2-0.2-0.3-0.2-0.5
		c0-0.2,0.1-0.4,0.2-0.5s0.3-0.3,0.5-0.3c1.1-0.1,2-0.2,2.7-0.4c0.7-0.1,1.2-0.4,1.6-0.7c0.4-0.3,0.6-0.8,0.8-1.4
		c0.1-0.6,0.2-1.4,0.2-2.5v-18.8c0-1-0.1-1.8-0.2-2.5c-0.1-0.7-0.4-1.3-0.7-1.7c-0.4-0.4-0.9-0.8-1.6-1c-0.7-0.2-1.6-0.4-2.7-0.5
		c-0.2,0-0.4-0.1-0.5-0.3c-0.1-0.2-0.2-0.4-0.2-0.6c0-0.2,0.1-0.4,0.2-0.5c0.1-0.2,0.3-0.2,0.5-0.2c1.2,0,2.5,0,4,0.1
		c1.5,0.1,2.9,0.1,4.2,0.1c0.8,0,1.5,0,2.2,0c0.7,0,1.3-0.1,2-0.1c0.6,0,1.3-0.1,1.9-0.1c0.7,0,1.4,0,2.1,0c0.2,0,0.4,0.1,0.5,0.2
		c0.1,0.2,0.1,0.3,0.1,0.5c0,0.2-0.1,0.4-0.2,0.6c-0.1,0.2-0.3,0.3-0.4,0.3c-1.1,0.1-2,0.2-2.7,0.4c-0.7,0.2-1.2,0.5-1.6,1
		c-0.4,0.4-0.6,1-0.7,1.7c-0.1,0.7-0.2,1.6-0.2,2.7v6.5c0,0.6,0.4,1,1.2,1H232z"/>
	<path d="M253.8,392.6c0-1-0.1-1.8-0.2-2.5c-0.1-0.7-0.4-1.3-0.7-1.7c-0.4-0.4-0.9-0.8-1.6-1c-0.7-0.2-1.6-0.4-2.7-0.5
		c-0.2,0-0.4-0.1-0.5-0.3c-0.1-0.2-0.2-0.4-0.2-0.6c0-0.2,0.1-0.4,0.2-0.5c0.1-0.2,0.3-0.2,0.5-0.2c1.2,0,2.5,0,4,0.1
		c1.5,0.1,2.9,0.1,4.2,0.1c0.8,0,1.5,0,2.2,0c0.7,0,1.3-0.1,2-0.1c0.6,0,1.3-0.1,1.9-0.1c0.7,0,1.4,0,2.1,0c0.2,0,0.4,0.1,0.5,0.2
		c0.1,0.2,0.1,0.3,0.1,0.5c0,0.2-0.1,0.4-0.2,0.6c-0.1,0.2-0.3,0.3-0.4,0.3c-1.1,0.1-2,0.2-2.7,0.4c-0.7,0.2-1.2,0.5-1.6,1
		c-0.4,0.4-0.6,1-0.7,1.7c-0.1,0.7-0.2,1.6-0.2,2.7v18.8c0,1.1,0.1,1.9,0.2,2.5c0.1,0.6,0.4,1,0.8,1.4c0.4,0.3,0.9,0.6,1.6,0.7
		c0.7,0.1,1.6,0.3,2.7,0.4c0.2,0,0.4,0.1,0.5,0.3c0.1,0.2,0.2,0.4,0.2,0.6c0,0.2-0.1,0.4-0.2,0.5c-0.1,0.2-0.3,0.2-0.6,0.2
		c-1.5,0-2.9-0.1-4.2-0.2c-1.3-0.1-2.7-0.2-4-0.2c-1.4,0-2.8,0.1-4.3,0.2c-1.5,0.1-2.8,0.2-4,0.2c-0.2,0-0.4-0.1-0.5-0.2
		c-0.1-0.2-0.2-0.3-0.2-0.5c0-0.2,0.1-0.4,0.2-0.6c0.1-0.2,0.3-0.3,0.5-0.3c1.1-0.1,2-0.2,2.7-0.4c0.7-0.1,1.2-0.4,1.6-0.7
		c0.4-0.3,0.6-0.8,0.8-1.4c0.1-0.6,0.2-1.4,0.2-2.5V392.6z"/>
	<path d="M303.2,413.8c0,0.3-0.1,0.4-0.3,0.5c-0.9,0.6-1.9,1.2-2.7,1.7c-0.9,0.5-1.9,0.9-3,1.2c-1.1,0.3-2.4,0.6-3.9,0.8
		s-3.3,0.3-5.3,0.3c-3,0-5.6-0.4-8-1.1c-2.3-0.8-4.3-1.8-5.8-3.3c-1.6-1.4-2.8-3.2-3.6-5.3c-0.8-2.1-1.2-4.4-1.2-7.1
		c0-2.7,0.5-5.1,1.4-7.3c1-2.1,2.3-3.9,4-5.4c1.7-1.4,3.7-2.5,6.1-3.3c2.4-0.8,4.9-1.1,7.7-1.1c1.8,0,3.4,0.2,5,0.6
		c1.6,0.4,3.1,0.9,4.4,1.5c0.8,0.3,1.4,0.5,1.9,0.6c0.5,0.1,0.9-0.2,1.1-0.9c0-0.2,0.2-0.3,0.4-0.3c0.2-0.1,0.4-0.1,0.6-0.1
		c0.2,0,0.4,0.1,0.5,0.1c0.1,0.1,0.2,0.2,0.2,0.3c-0.3,1.2-0.4,2.6-0.4,4.1s0.2,3,0.4,4.6c0,0.2-0.1,0.3-0.3,0.4
		c-0.2,0.1-0.4,0.2-0.6,0.2c-0.2,0-0.4,0-0.7-0.1s-0.3-0.2-0.4-0.4c-0.5-2.8-1.9-4.9-4.1-6.4c-2.2-1.5-5-2.2-8.5-2.2
		c-2.1,0-3.9,0.4-5.4,1.3c-1.5,0.8-2.8,1.9-3.7,3.3s-1.7,2.9-2.1,4.6c-0.5,1.7-0.7,3.4-0.7,5c0,2.3,0.3,4.5,0.8,6.4
		c0.5,1.9,1.3,3.5,2.4,4.9c1,1.4,2.3,2.4,3.8,3.1c1.5,0.7,3.2,1.1,5.2,1.1c1.4,0,2.7-0.1,3.9-0.3c1.2-0.2,2.2-0.5,3-0.9
		c0.8-0.4,1.5-1.1,1.9-1.8c0.5-0.8,0.7-1.8,0.7-3c0-1-0.1-1.7-0.2-2.3c-0.1-0.5-0.4-1-0.8-1.2s-0.9-0.5-1.6-0.6
		c-0.7-0.1-1.6-0.2-2.7-0.3c-0.3,0-0.4-0.1-0.5-0.2s-0.2-0.3-0.2-0.5c0-0.2,0-0.4,0.1-0.5c0.1-0.1,0.2-0.2,0.5-0.2
		c1.3,0,2.6,0,4,0.1s2.6,0.1,3.6,0.1c0.5,0,1,0,1.5,0c0.5,0,0.9-0.1,1.4-0.1c0.5,0,1,0,1.6-0.1c0.6,0,1.2,0,1.9,0
		c0.2,0,0.3,0.1,0.4,0.2c0.1,0.1,0.1,0.3,0.1,0.5c0,0.2-0.1,0.3-0.2,0.5s-0.3,0.2-0.5,0.3c-0.8,0.1-1.4,0.2-1.9,0.3
		c-0.4,0.2-0.8,0.4-1,0.7c-0.2,0.3-0.3,0.6-0.4,1.1c0,0.4-0.1,1-0.1,1.6V413.8z"/>
	<path d="M337.1,400c0.4,0,0.8-0.1,1-0.2s0.3-0.4,0.3-0.8v-6.5c0-1-0.1-1.8-0.2-2.5s-0.4-1.3-0.7-1.7c-0.4-0.4-0.9-0.8-1.6-1
		c-0.7-0.2-1.6-0.4-2.7-0.5c-0.2,0-0.4-0.1-0.5-0.3c-0.1-0.2-0.2-0.4-0.2-0.6c0-0.2,0.1-0.4,0.2-0.5c0.1-0.2,0.3-0.2,0.5-0.2
		c1.2,0,2.5,0,4,0.1c1.5,0.1,2.9,0.1,4.2,0.1c0.8,0,1.5,0,2.2,0c0.7,0,1.3-0.1,2-0.1c0.6,0,1.3-0.1,1.9-0.1c0.7,0,1.4,0,2.1,0
		c0.2,0,0.4,0.1,0.5,0.2c0.1,0.2,0.1,0.3,0.1,0.5c0,0.2-0.1,0.4-0.2,0.6c-0.1,0.2-0.3,0.3-0.4,0.3c-1.1,0.1-2,0.2-2.7,0.4
		c-0.7,0.2-1.2,0.5-1.6,1c-0.4,0.4-0.6,1-0.7,1.7c-0.1,0.7-0.2,1.6-0.2,2.7v18.8c0,1.1,0.1,1.9,0.2,2.5s0.4,1.1,0.8,1.4
		s0.9,0.6,1.6,0.7c0.7,0.1,1.6,0.3,2.7,0.4c0.2,0,0.4,0.1,0.5,0.3c0.1,0.2,0.2,0.3,0.2,0.5c0,0.2-0.1,0.4-0.2,0.5
		c-0.1,0.2-0.3,0.2-0.6,0.2c-1.5,0-2.9-0.1-4.2-0.2c-1.3-0.1-2.7-0.2-4-0.2c-1.4,0-2.8,0.1-4.3,0.2c-1.5,0.1-2.8,0.2-4,0.2
		c-0.2,0-0.4-0.1-0.5-0.2c-0.1-0.2-0.2-0.3-0.2-0.5c0-0.2,0.1-0.4,0.2-0.5s0.3-0.3,0.5-0.3c1.1-0.1,2-0.2,2.7-0.4
		c0.7-0.1,1.2-0.4,1.6-0.7s0.6-0.8,0.8-1.4s0.2-1.4,0.2-2.5v-8c0-0.8-0.4-1.2-1.2-1.2h-16.4c-0.8,0-1.2,0.3-1.2,1v8.3
		c0,1.1,0.1,1.9,0.2,2.5s0.4,1.1,0.8,1.4c0.4,0.3,0.9,0.6,1.6,0.7c0.7,0.1,1.6,0.3,2.7,0.4c0.2,0,0.4,0.1,0.5,0.3
		c0.1,0.2,0.2,0.3,0.2,0.5c0,0.2-0.1,0.4-0.2,0.5c-0.1,0.2-0.3,0.2-0.6,0.2c-1.5,0-2.9-0.1-4.2-0.2c-1.3-0.1-2.7-0.2-4-0.2
		c-1.4,0-2.8,0.1-4.3,0.2c-1.5,0.1-2.8,0.2-4,0.2c-0.2,0-0.4-0.1-0.5-0.2c-0.1-0.2-0.2-0.3-0.2-0.5c0-0.2,0.1-0.4,0.2-0.5
		s0.3-0.3,0.5-0.3c1.1-0.1,2-0.2,2.7-0.4c0.7-0.1,1.2-0.4,1.6-0.7s0.6-0.8,0.8-1.4s0.2-1.4,0.2-2.5v-18.8c0-1-0.1-1.8-0.2-2.5
		s-0.4-1.3-0.7-1.7c-0.4-0.4-0.9-0.8-1.6-1c-0.7-0.2-1.6-0.4-2.7-0.5c-0.2,0-0.4-0.1-0.5-0.3c-0.1-0.2-0.2-0.4-0.2-0.6
		c0-0.2,0.1-0.4,0.2-0.5c0.1-0.2,0.3-0.2,0.5-0.2c1.2,0,2.5,0,4,0.1c1.5,0.1,2.9,0.1,4.2,0.1c0.8,0,1.5,0,2.2,0c0.7,0,1.3-0.1,2-0.1
		c0.6,0,1.3-0.1,1.9-0.1c0.7,0,1.4,0,2.1,0c0.2,0,0.4,0.1,0.5,0.2c0.1,0.2,0.1,0.3,0.1,0.5c0,0.2-0.1,0.4-0.2,0.6
		c-0.1,0.2-0.3,0.3-0.4,0.3c-1.1,0.1-2,0.2-2.7,0.4c-0.7,0.2-1.2,0.5-1.6,1c-0.4,0.4-0.6,1-0.7,1.7c-0.1,0.7-0.2,1.6-0.2,2.7v6.5
		c0,0.6,0.4,1,1.2,1H337.1z"/>
	<path d="M373.6,391.7c0,1,0.2,1.8,0.7,2.4c0.5,0.7,1,1.2,1.8,1.7c0.7,0.4,1.5,0.8,2.4,1.2c0.9,0.3,1.7,0.7,2.5,1
		c1.4,0.6,2.8,1.2,4.1,1.8c1.4,0.6,2.6,1.4,3.7,2.2c1.1,0.8,2,1.9,2.7,3s1,2.6,1,4.2s-0.4,3.1-1.2,4.2c-0.8,1.1-1.8,2.1-3.1,2.8
		c-1.3,0.7-2.7,1.2-4.2,1.6c-1.6,0.3-3.1,0.5-4.7,0.5c-1,0-2.2-0.1-3.4-0.4c-1.3-0.3-2.4-0.7-3.5-1.2c-0.2-0.1-0.4-0.1-0.5-0.2
		c-0.2-0.1-0.4-0.1-0.6-0.1c-0.3,0-0.5,0.1-0.8,0.3c-0.3,0.2-0.5,0.5-0.8,1c-0.1,0.2-0.3,0.3-0.4,0.4c-0.2,0.1-0.4,0.1-0.6,0.1
		c-0.2,0-0.4-0.1-0.5-0.2s-0.2-0.2-0.2-0.3c0.1-0.7,0.2-1.5,0.3-2.3c0.1-0.8,0.1-1.6,0.1-2.5s0-1.7-0.1-2.5
		c-0.1-0.8-0.2-1.7-0.3-2.6c0-0.2,0-0.4,0.2-0.5c0.2-0.1,0.4-0.2,0.6-0.2c0.2,0,0.4,0,0.6,0.1c0.2,0.1,0.3,0.2,0.4,0.4
		c0.2,1.3,0.6,2.5,1.2,3.6c0.6,1.1,1.3,2,2.2,2.7c0.9,0.8,1.9,1.3,3,1.8c1.1,0.4,2.3,0.6,3.6,0.6c1,0,1.9-0.1,2.8-0.4
		c0.9-0.2,1.7-0.6,2.4-1.1c0.7-0.5,1.2-1,1.6-1.7c0.4-0.7,0.6-1.5,0.6-2.4c0-1.2-0.3-2.2-0.8-3s-1.3-1.6-2.1-2.2
		c-0.8-0.6-1.8-1.2-2.8-1.6s-2-0.9-2.9-1.3c-1.2-0.5-2.4-1-3.6-1.5c-1.2-0.5-2.3-1.1-3.2-1.8c-0.9-0.7-1.7-1.6-2.3-2.6
		c-0.6-1-0.9-2.3-0.9-3.8c0-1.5,0.4-2.8,1.1-3.9c0.7-1,1.7-1.9,2.8-2.5c1.2-0.6,2.5-1.1,4-1.4c1.5-0.3,3-0.4,4.7-0.4
		c1,0,1.9,0.1,2.6,0.2c0.7,0.1,1.5,0.3,2.4,0.6c0.5,0.1,0.9,0.2,1.2,0.3c0.3,0.1,0.6,0.1,0.9,0.1c0.4,0,0.7-0.2,0.9-0.5
		c0.1-0.1,0.2-0.2,0.4-0.3c0.2,0,0.4-0.1,0.6,0c0.2,0,0.3,0.1,0.5,0.1c0.1,0.1,0.2,0.2,0.2,0.3c-0.2,0.6-0.3,1.2-0.4,1.7
		s-0.1,1.2-0.1,1.8c0,0.8,0.1,1.6,0.2,2.3s0.2,1.5,0.3,2.4c0,0.1-0.1,0.2-0.2,0.3c-0.1,0.1-0.3,0.1-0.5,0.1c-0.2,0-0.4,0-0.6-0.1
		c-0.2-0.1-0.3-0.2-0.3-0.3c-0.4-1.4-0.8-2.6-1.2-3.5c-0.4-0.9-1-1.6-1.6-2.1c-0.7-0.5-1.5-0.9-2.4-1.1c-0.9-0.2-2.1-0.3-3.4-0.3
		c-0.9,0-1.8,0.1-2.6,0.3c-0.8,0.2-1.5,0.5-2.2,0.9c-0.6,0.4-1.1,0.9-1.5,1.6C373.8,390.2,373.6,390.9,373.6,391.7z"/>
	<path d="M416.4,384.4c1.6,0,3.2,0.2,4.5,0.5c1.4,0.4,2.8,0.8,4.1,1.4c0.4,0.2,0.8,0.3,1.1,0.5s0.6,0.2,0.9,0.2c0.6,0,1-0.3,1.1-0.9
		c0-0.1,0.2-0.2,0.4-0.3c0.2-0.1,0.4-0.1,0.6-0.1c0.2,0,0.4,0.1,0.5,0.1c0.1,0.1,0.2,0.2,0.2,0.3c-0.1,0.5-0.2,1-0.3,1.6
		c-0.1,0.5-0.1,1.1-0.1,1.7c0,0.9,0.1,1.8,0.2,2.7c0.1,0.9,0.3,1.8,0.4,2.8c0,0.1-0.1,0.2-0.2,0.3c-0.2,0.1-0.4,0.1-0.6,0.1
		c-0.2,0-0.5,0-0.7-0.1c-0.2-0.1-0.3-0.2-0.4-0.3c-0.9-2.9-2.4-5-4.4-6.4c-2-1.4-4.6-2-7.7-2c-2.4,0-4.4,0.4-6,1.3
		c-1.6,0.9-2.8,2.1-3.7,3.5c-0.9,1.4-1.6,3-1.9,4.7c-0.4,1.7-0.5,3.4-0.5,5c0,1.8,0.2,3.6,0.7,5.4s1.1,3.4,2.1,4.8
		c1,1.4,2.3,2.6,3.9,3.5c1.6,0.9,3.5,1.4,5.8,1.4c1.8,0,3.3-0.1,4.7-0.4c1.4-0.3,2.6-0.8,3.5-1.5c1.2-0.9,2.1-2,2.8-3.3
		c0.7-1.3,1.2-2.8,1.5-4.4c0-0.2,0.2-0.4,0.4-0.4c0.2-0.1,0.4-0.1,0.6,0s0.4,0.1,0.6,0.3c0.2,0.1,0.3,0.3,0.2,0.4
		c-0.1,0.6-0.2,1.3-0.2,1.9c0,0.6-0.1,1.3-0.1,1.9c0,1.1,0,2.2,0.1,3.3c0.1,1.1,0.2,2.3,0.2,3.6c0,0.2-0.1,0.3-0.2,0.4
		c-0.1,0.1-0.3,0.2-0.5,0.2c-0.2,0-0.4,0-0.6-0.1s-0.3-0.2-0.3-0.4c-0.1-0.3-0.2-0.6-0.4-0.8c-0.2-0.3-0.4-0.5-0.7-0.7
		s-0.6-0.3-1-0.3c-0.4,0-0.8,0.1-1.3,0.3c-0.8,0.4-1.6,0.7-2.3,1c-0.7,0.3-1.5,0.5-2.3,0.6c-0.8,0.2-1.6,0.3-2.4,0.3
		c-0.8,0.1-1.8,0.1-2.7,0.1c-6.5,0-11.2-1.4-14.4-4.2s-4.7-6.9-4.7-12.2c0-2.8,0.5-5.3,1.5-7.5c1-2.2,2.3-4,4.1-5.4
		c1.7-1.5,3.8-2.6,6.2-3.3C411,384.8,413.6,384.4,416.4,384.4z"/>
	<path d="M463.2,400c0.4,0,0.8-0.1,1-0.2s0.3-0.4,0.3-0.8v-6.5c0-1-0.1-1.8-0.2-2.5s-0.4-1.3-0.7-1.7c-0.4-0.4-0.9-0.8-1.6-1
		c-0.7-0.2-1.6-0.4-2.7-0.5c-0.2,0-0.4-0.1-0.5-0.3c-0.1-0.2-0.2-0.4-0.2-0.6c0-0.2,0.1-0.4,0.2-0.5c0.1-0.2,0.3-0.2,0.5-0.2
		c1.2,0,2.5,0,4,0.1c1.5,0.1,2.9,0.1,4.2,0.1c0.8,0,1.5,0,2.2,0c0.7,0,1.3-0.1,2-0.1c0.6,0,1.3-0.1,1.9-0.1c0.7,0,1.4,0,2.1,0
		c0.2,0,0.4,0.1,0.5,0.2c0.1,0.2,0.1,0.3,0.1,0.5c0,0.2-0.1,0.4-0.2,0.6c-0.1,0.2-0.3,0.3-0.4,0.3c-1.1,0.1-2,0.2-2.7,0.4
		c-0.7,0.2-1.2,0.5-1.6,1c-0.4,0.4-0.6,1-0.7,1.7c-0.1,0.7-0.2,1.6-0.2,2.7v18.8c0,1.1,0.1,1.9,0.2,2.5s0.4,1.1,0.8,1.4
		s0.9,0.6,1.6,0.7c0.7,0.1,1.6,0.3,2.7,0.4c0.2,0,0.4,0.1,0.5,0.3c0.1,0.2,0.2,0.3,0.2,0.5c0,0.2-0.1,0.4-0.2,0.5
		c-0.1,0.2-0.3,0.2-0.6,0.2c-1.5,0-2.9-0.1-4.2-0.2c-1.3-0.1-2.7-0.2-4-0.2c-1.4,0-2.8,0.1-4.3,0.2c-1.5,0.1-2.8,0.2-4,0.2
		c-0.2,0-0.4-0.1-0.5-0.2c-0.1-0.2-0.2-0.3-0.2-0.5c0-0.2,0.1-0.4,0.2-0.5s0.3-0.3,0.5-0.3c1.1-0.1,2-0.2,2.7-0.4
		c0.7-0.1,1.2-0.4,1.6-0.7s0.6-0.8,0.8-1.4s0.2-1.4,0.2-2.5v-8c0-0.8-0.4-1.2-1.2-1.2h-16.4c-0.8,0-1.2,0.3-1.2,1v8.3
		c0,1.1,0.1,1.9,0.2,2.5s0.4,1.1,0.8,1.4c0.4,0.3,0.9,0.6,1.6,0.7c0.7,0.1,1.6,0.3,2.7,0.4c0.2,0,0.4,0.1,0.5,0.3
		c0.1,0.2,0.2,0.3,0.2,0.5c0,0.2-0.1,0.4-0.2,0.5c-0.1,0.2-0.3,0.2-0.6,0.2c-1.5,0-2.9-0.1-4.2-0.2c-1.3-0.1-2.7-0.2-4-0.2
		c-1.4,0-2.8,0.1-4.3,0.2c-1.5,0.1-2.8,0.2-4,0.2c-0.2,0-0.4-0.1-0.5-0.2c-0.1-0.2-0.2-0.3-0.2-0.5c0-0.2,0.1-0.4,0.2-0.5
		s0.3-0.3,0.5-0.3c1.1-0.1,2-0.2,2.7-0.4c0.7-0.1,1.2-0.4,1.6-0.7s0.6-0.8,0.8-1.4s0.2-1.4,0.2-2.5v-18.8c0-1-0.1-1.8-0.2-2.5
		s-0.4-1.3-0.7-1.7c-0.4-0.4-0.9-0.8-1.6-1c-0.7-0.2-1.6-0.4-2.7-0.5c-0.2,0-0.4-0.1-0.5-0.3c-0.1-0.2-0.2-0.4-0.2-0.6
		c0-0.2,0.1-0.4,0.2-0.5c0.1-0.2,0.3-0.2,0.5-0.2c1.2,0,2.5,0,4,0.1c1.5,0.1,2.9,0.1,4.2,0.1c0.8,0,1.5,0,2.2,0c0.7,0,1.3-0.1,2-0.1
		c0.6,0,1.3-0.1,1.9-0.1c0.7,0,1.4,0,2.1,0c0.2,0,0.4,0.1,0.5,0.2c0.1,0.2,0.1,0.3,0.1,0.5c0,0.2-0.1,0.4-0.2,0.6
		c-0.1,0.2-0.3,0.3-0.4,0.3c-1.1,0.1-2,0.2-2.7,0.4c-0.7,0.2-1.2,0.5-1.6,1c-0.4,0.4-0.6,1-0.7,1.7c-0.1,0.7-0.2,1.6-0.2,2.7v6.5
		c0,0.6,0.4,1,1.2,1H463.2z"/>
	<path d="M498.2,418.1c-5.7,0-10.2-1.4-13.5-4.3c-3.2-2.8-4.9-7.1-4.9-12.8c0-2.4,0.5-4.7,1.4-6.7c0.9-2,2.2-3.8,3.8-5.3
		c1.6-1.5,3.6-2.6,5.8-3.4c2.3-0.8,4.8-1.2,7.5-1.2c2.7,0,5.1,0.4,7.3,1.2c2.2,0.8,4.1,1.9,5.7,3.3c1.6,1.4,2.9,3.2,3.7,5.2
		c0.9,2,1.3,4.3,1.3,6.8c0,2.8-0.5,5.2-1.5,7.4c-1,2.1-2.3,3.9-3.9,5.4s-3.6,2.6-5.8,3.3C503.1,417.7,500.8,418.1,498.2,418.1z
		 M498.5,416.1c1.8,0,3.4-0.4,4.7-1.2c1.4-0.8,2.5-1.9,3.5-3.3c0.9-1.4,1.7-2.9,2.2-4.7c0.5-1.8,0.7-3.6,0.7-5.5
		c0-1.9-0.2-3.7-0.6-5.5c-0.4-1.8-1-3.4-1.9-4.8c-0.9-1.4-2-2.5-3.5-3.4c-1.5-0.8-3.2-1.3-5.4-1.3c-2,0-3.7,0.4-5.1,1.3
		c-1.4,0.9-2.6,2-3.5,3.4c-0.9,1.4-1.6,3-2,4.8c-0.4,1.8-0.7,3.6-0.7,5.4c0,1.9,0.2,3.8,0.5,5.6c0.4,1.8,1,3.4,1.9,4.7
		c0.9,1.4,2.1,2.5,3.5,3.3C494.3,415.7,496.2,416.1,498.5,416.1z"/>
	<path d="M539.3,418.1c-5.7,0-10.2-1.4-13.5-4.3c-3.2-2.8-4.9-7.1-4.9-12.8c0-2.4,0.5-4.7,1.4-6.7c0.9-2,2.2-3.8,3.8-5.3
		c1.6-1.5,3.6-2.6,5.8-3.4c2.3-0.8,4.8-1.2,7.5-1.2c2.7,0,5.1,0.4,7.3,1.2c2.2,0.8,4.1,1.9,5.7,3.3c1.6,1.4,2.9,3.2,3.7,5.2
		c0.9,2,1.3,4.3,1.3,6.8c0,2.8-0.5,5.2-1.5,7.4c-1,2.1-2.3,3.9-3.9,5.4s-3.6,2.6-5.8,3.3C544.2,417.7,541.8,418.1,539.3,418.1z
		 M539.5,416.1c1.8,0,3.4-0.4,4.7-1.2c1.4-0.8,2.5-1.9,3.5-3.3c0.9-1.4,1.7-2.9,2.2-4.7c0.5-1.8,0.7-3.6,0.7-5.5
		c0-1.9-0.2-3.7-0.6-5.5c-0.4-1.8-1-3.4-1.9-4.8c-0.9-1.4-2-2.5-3.5-3.4c-1.5-0.8-3.2-1.3-5.4-1.3c-2,0-3.7,0.4-5.1,1.3
		c-1.4,0.9-2.6,2-3.5,3.4c-0.9,1.4-1.6,3-2,4.8c-0.4,1.8-0.7,3.6-0.7,5.4c0,1.9,0.2,3.8,0.5,5.6c0.4,1.8,1,3.4,1.9,4.7
		c0.9,1.4,2.1,2.5,3.5,3.3C535.4,415.7,537.2,416.1,539.5,416.1z"/>
	<path d="M567.2,392.6c0-1-0.1-1.8-0.2-2.5s-0.4-1.3-0.7-1.7c-0.4-0.4-0.9-0.8-1.6-1c-0.7-0.2-1.6-0.4-2.7-0.5
		c-0.2,0-0.4-0.1-0.5-0.3c-0.1-0.2-0.2-0.4-0.2-0.6c0-0.2,0.1-0.4,0.2-0.5c0.1-0.2,0.3-0.2,0.5-0.2c1.2,0,2.5,0,4,0.1
		c1.5,0.1,2.9,0.1,4.2,0.1c0.8,0,1.5,0,2.2,0c0.7,0,1.3-0.1,2-0.1c0.6,0,1.3-0.1,1.9-0.1c0.7,0,1.4,0,2.1,0c0.2,0,0.4,0.1,0.5,0.2
		c0.1,0.2,0.1,0.3,0.1,0.5c0,0.2-0.1,0.4-0.2,0.6c-0.1,0.2-0.3,0.3-0.4,0.3c-1.1,0.1-2,0.2-2.7,0.4c-0.7,0.2-1.2,0.5-1.6,1
		c-0.4,0.4-0.6,1-0.7,1.7c-0.1,0.7-0.2,1.6-0.2,2.7v16.7c0,1,0.1,1.9,0.2,2.6c0.1,0.7,0.3,1.3,0.6,1.7c0.3,0.5,0.7,0.8,1.2,1.1
		s1.1,0.5,1.9,0.7c0.5,0.1,1.1,0.2,1.7,0.2c0.6,0,1.3,0.1,2,0.1c0.9,0,1.7,0,2.5-0.1c0.8-0.1,1.3-0.2,1.8-0.3
		c0.7-0.2,1.4-0.5,1.9-0.7c0.5-0.3,1-0.6,1.3-1c0.4-0.4,0.7-0.9,0.9-1.6c0.2-0.6,0.4-1.4,0.6-2.4c0-0.2,0.2-0.3,0.4-0.4
		c0.2-0.1,0.5-0.1,0.7-0.1c0.3,0,0.5,0,0.7,0.1c0.2,0.1,0.3,0.2,0.2,0.4c-0.2,1.3-0.3,2.6-0.5,3.8c-0.1,1.2-0.2,2.4-0.2,3.6
		c0,0.1-0.1,0.2-0.2,0.4c-0.1,0.2-0.5,0.3-1,0.3h-19.9c-1.4,0-2.8,0-4.1,0.1c-1.3,0.1-2.6,0.2-3.9,0.2c-0.3,0-0.4-0.1-0.6-0.2
		c-0.1-0.2-0.2-0.3-0.2-0.5c0-0.2,0.1-0.4,0.2-0.6c0.1-0.2,0.3-0.3,0.6-0.3c1.1-0.1,2-0.3,2.7-0.4c0.7-0.1,1.2-0.4,1.6-0.7
		c0.4-0.3,0.6-0.8,0.7-1.3s0.2-1.4,0.2-2.5V392.6L567.2,392.6z"/>
</g>
<g>
	<radialGradient id="SVGID_1_" cx="106.9405" cy="398.3385" r="4.7689" gradientUnits="userSpaceOnUse">
		<stop  offset="0.5563" style="stop-color:#000000"/>
		<stop  offset="0.559" style="stop-color:#010208"/>
		<stop  offset="0.6453" style="stop-color:#2A3EFF"/>
		<stop  offset="0.739" style="stop-color:#293DFC"/>
		<stop  offset="0.7997" style="stop-color:#2738F4"/>
		<stop  offset="0.851" style="stop-color:#2331E5"/>
		<stop  offset="0.8971" style="stop-color:#1E27D0"/>
		<stop  offset="0.9397" style="stop-color:#171AB4"/>
		<stop  offset="0.9793" style="stop-color:#0E0A94"/>
		<stop  offset="1" style="stop-color:#09007F"/>
	</radialGradient>
	<ellipse fill="url(#SVGID_1_)" cx="106.9" cy="398.3" rx="5" ry="4.5"/>
	<path fill="#D4B57C" d="M120.3,440.3c-5.2,3.2-8.1,8.6-12,13c-2.1,2.3-4.2,4.5-6.4,6.7c-2.9,2.8-6.5,1.5-9.8,1.2c-1-0.1-2-0.2-3,0
		c-5.8,1.3-9.4,0-13-4.8c-4-5.3-8.3-10.4-12.2-15.8c-1.2-1.7-2.2-3.8-2.6-5.9c-0.7-3.5-0.9-7.1-1.2-10.6c-0.1-0.9,0.4-1.8,0.7-2.7
		c1.6,0.7,1.6,0.7,3.7,6c1.4-3.1,2.6-6,3.9-9c-0.1-0.1-0.3-0.2-0.3-0.2c-1.1,0.6-2.5,1.9-3.4,1.6c-2.4-0.7-4.5-2.3-5.2-4.8
		c-0.6-2.1-0.7-4.4-0.7-6.6c0-2.7,0.3-5.4,0.5-8c0.1-0.8,0.1-1.6,0.2-2.4c0.2,0,0.5-0.1,0.7-0.1c0.4,1.7,0.8,3.4,1.2,5.1
		c0.6,2,1,4.1,1.9,6c2.7,5.8,10.1,7.6,15.5,4.3c3.2-2,4.7-4.9,6-8.2c0.3-0.6,0.7-1.2,1.1-2c0.3,0.4,0.5,0.6,0.5,0.7
		c0.4,3,1,5.9,1.1,8.9c0.1,1.7-0.3,3.4-0.7,5.1c-0.3,1.7-0.8,3.5-1.3,5.2c-0.2,0.7-0.9,1.2-1.3,1.6c0.9,0.9,2.1,1.8,3.2,2.9
		c1.7,1.7,5.2,1,5.9-1.4c0.8-2.5,2.4-3,4.7-1.3c3.4,2.6,3.9,2.4,4.4-2c0-0.4,0.2-0.7,0.4-1.5c1.5,1.3,2.9,2.3,4.1,3.4
		c1.2,1.1,2.4,2.3,3.7,3.4c0.1-3.1-7.2-9.5-11.5-10.1c1,2.1,2.1,4.2,1.1,6.5c-1.3-0.4-2.5-0.7-3.5-1.2c-0.4-0.2-0.4-1.2-0.6-1.8
		c-0.2-0.5-0.6-1-0.9-1.6c-0.3,0.5-0.7,0.9-1,1.4c-0.6,1.4-1.1,2.9-1.9,4.2c-0.4,0.7-1.5,1.6-2.1,1.6c-0.7-0.1-1.6-1.1-1.8-1.9
		c-0.8-2.4-1.3-5.1-0.2-7.5c1.6-3.6,1.2-7,0.3-10.7c-0.3-1.4,0.1-3,0.3-4.5c0.1-0.8,0.3-1.6,0.5-2.4c0.1-0.4,0-0.8,0.1-1.2
		c0.2-1.8,2-4,3.1-3.6c1.8,0.6,1.8,2.3,1.8,3.8c0,1.7-0.3,3.4-0.3,5.1c0,1.6,0.2,3.3,0.5,5c1-1.7,1.8-3.4,0.9-5.5
		c-0.4-1-0.3-2.2-0.4-3.3c0.2-0.1,0.5-0.1,0.7-0.2c1.3,1.4,2.6,2.8,3.8,4.2c2.9,3.5,5.5,4.4,9.7,3.1c-3.7-0.6-6.6-2.2-9.3-5.1
		c1.5,0.1,2.5,0.1,3.5,0.2l-0.1-0.1c1.8,1.4,5,1.4,7.4,0l-0.1,0.1c3.2-1.4,7.3-0.7,9.6-4.3c-0.4,0.2-0.8,0.5-1.2,0.5
		c-1.2,0-3,0.4-3.4-0.2c-1.2-1.8-2.7-1.6-4.5-1.5c-1.4,0.1-2.9-0.1-4.4-0.2c0-0.2-0.1-0.5-0.1-0.7c2.1-1.5,4.1-3.5,6.5-4.2
		c1.7-0.5,3.9,0.8,5.8,1.4c0.5,0.2,1,0.5,1.5,0.9c0.9-1.3,0.4-2.2-0.5-3.1c-1.1-1-2.3-1.9-3.3-3c-1.3-1.5-2.7-1.4-4.1-0.7
		c-3.8,2-7.6,4-11.3,6.1c-1.6,0.9-3.2,1.1-5-0.3c1.7-1,3.1-2,4.5-2.9c3-1.9,6-4,9.1-5.7c1.2-0.7,2.9-1,4.1-0.7
		c2.1,0.5,4.2,1.6,6.2,2.5c1.2,0.5,2.4,1.2,3.6,1.8c2.4,1.1,3,2.2,2.6,4.9c-0.4,2.8-0.9,5.6-1.1,8.3c-0.1,1.2,0.5,2.4,1,3.6
		c1.7,3.7,1,7.3-1.3,10.3c-1.8,2.3-4.5,3.9-6.8,5.7c-0.2,0.2-1.2-0.1-1.5-0.5c-1.8-2.5-3.4-5.2-5.3-8c1.1,6.8,6.5,11.6,7.6,18.1
		c0.2,0,0.5-0.1,0.7-0.1c-0.2-1.4-0.3-2.9-0.7-4.2c-0.5-1.6-0.1-2.7,1.2-3.7c1.5-1.1,3-2.3,4.7-3.7c0.3,1.1,0.7,1.8,0.7,2.5
		c0.4,4.4-0.4,8.7-2.5,12.6C122.1,436.3,121.2,438.3,120.3,440.3C120.3,440.3,120.3,440.3,120.3,440.3z M101.5,451
		c-2.2-3.1-4.9-4.3-9.9-4.5c-3.5-0.1-6.9-0.2-9.3,3.8C89,446.5,95.2,448,101.5,451z M76.7,424.6c1.6,1,2.9,1.8,4.5,2.8
		c0.2-0.2,0.5-0.6,0.9-1c-2.5-2.1-2.1-4.4,0.9-7c-0.8-1.2-1.8-1.2-2.6-0.2C79.1,421,77.9,422.9,76.7,424.6z M74,423.5
		c-2.9,1-6.6,5.9-6.7,9.2C69.7,429.5,71.8,426.6,74,423.5z"/>
	<path fill="#D4B57C" d="M97.8,383.2c-1.4,1.2-2.8,2.3-4.1,3.5c2.5,0.2,4-1.5,5.7-2.6c0.8-0.5,1.8-0.7,2.7-1
		c0.1,0.3,0.3,0.5,0.4,0.8c-1,0.8-1.9,1.9-3,2.4c-5,2.6-10.1,5-15.1,7.4c-1.1,0.5-2,0.3-3-0.4c-2.5-1.7-5-3.3-7.7-4.7
		c-2.1-1.1-4.5-1.7-6.8-0.6c-0.6,0.2-1.2,0.6-1.5,1.1c-0.4,0.6-0.5,1.4-0.7,2c0.7,0.1,1.4,0.3,2.1,0.2c4-0.9,8.1,0.8,10.7,4.6
		c-5.3,1-10.4,0.9-15-2.1c-2.9-1.9-2.7-6.7,0.3-8.9c3-2.3,6.4-2.3,9.9-1.6c0.9,0.2,1.8,0.2,3.3,0.4c-1.2-1.1-2-1.7-3-2.7
		c3.2-1,5.8,0,9,0.7c-1.5,1.1-2.7,1.9-3.8,2.7c1.8,0.8,2.2,0.7,10.1-2.5c-0.9,2-2.5,2.8-8.9,4.6c1.9,1.8,4,1.3,5.9,0.5
		c1.8-0.7,3.5-1.8,5.3-2.8c0.1,0.1,0.2,0.3,0.3,0.4c-1.8,1.5-3.7,3-5.5,4.5c1.9,0.3,3.1,0,6.5-2.3c1.9-1.3,3.7-2.9,5.6-4.4
		C97.3,382.7,97.5,383,97.8,383.2z M65.2,385.6c2.1,0.1,4,0,5.8,0.3c1.8,0.3,3.6,1,5.4,1.6C74.1,384.4,68.3,383.6,65.2,385.6z"/>
	<path fill="#D4B57C" d="M56.4,405.7c0.5,3.3,1.1,6.6,1.5,10c0.1,1-0.1,2.1-0.5,3.1c-0.3,0.7-1.1,1.3-1.6,1.9
		c-0.5-0.8-1.2-1.5-1.6-2.4c-0.8-2-1.2-4.1-2.1-6.1c-0.5-1.2-1.4-2.3-2.4-3.2c-3.5-3-3.8-6.9-3.1-11.1c0.3-1.7,0.9-3.5,1.7-5
		c1.1-2,3-2,4.6-0.4c2.6,2.7,3.4,6.1,3.7,9.6c0.1,1.1,0,2.3,0,3.5C56.6,405.7,56.5,405.7,56.4,405.7z M54.5,409.8
		c0-1.5-0.3-3.1,0.1-4.5c1.1-4.2-1.4-7.2-3.3-10.3c-0.5-0.8-1.4-0.9-1.8,0.1c-1,2.3-0.9,4.8-0.4,7.2c0.4-0.5,0.4-1.1,0.7-1.5
		c0.4-0.6,1-1,1.5-1.4c0.2,0.7,0.5,1.4,0.6,2.1c0,0.3-0.2,0.6-0.3,0.9C50.7,405,52,408.4,54.5,409.8z"/>
	<path fill="#D4B57C" d="M141.5,399.1c0.2,4.1-1.5,8-3.3,11.9c-0.5,1-1.1,2-1.4,3.1c-0.4,1.8-1,3.2-3.3,3c-0.4,0-1,1.8-1.6,2.7
		c-0.4,0.6-0.8,1.2-1.2,1.8c-0.7-0.6-1.7-1.1-1.9-1.8c-0.3-1.1-0.3-2.4-0.1-3.6c0.4-2.2,1-4.4,1.4-6.5c0.5-2.4,0.7-4.8,1.3-7.1
		c0.3-1.3,1.1-2.5,1.9-3.7c1-1.5,2.2-2.8,3.5-4.1c0.7-0.7,2.1-1.6,2.6-1.3c1,0.5,1.7,1.7,2.2,2.8C141.8,397,141.5,398,141.5,399.1z
		 M138.5,405.8c0.2,0,0.3,0,0.5,0.1c0.2-0.5,0.6-1.1,0.7-1.6c0.1-1.6,0.2-3.2,0.1-4.7c0-0.6-0.4-1.6-0.8-1.7
		c-0.5-0.2-1.5,0.1-1.8,0.6c-1.4,1.6-2.7,3.4-4,5.1c-0.2,0.2-0.3,0.7-0.2,0.9c0.8,1.9-0.2,3.4-0.9,5c-0.5,1.1-0.8,2.3-1.1,3.5
		c-0.1,0.4,0.1,0.9,0.2,1.4c0.4-0.2,1-0.2,1.3-0.6c1.2-1.6,2.3-3.2,3.5-4.8c0.8-1.1,1.1-2.1,0.3-3.3c-0.8-1.3-0.6-2.5,0.9-3.8
		C137.6,403.3,138.1,404.6,138.5,405.8z"/>
</g>
<g>
	<path d="M117.9,443.5c-0.6,1-1.8,2.3-2.5,3.2c-5,5.7-6.9,7.8-12,13.4c-1,1.1-2.4,1.8-3.6,2.7c-1.4,0-2.8,0-4.2,0
		c-2-0.3-4.1-0.7-6.1-0.7c-2.8-0.1-5.6,0.4-8.4,0.2c-1.1-0.1-2.3-1-3.1-1.9c-2.7-3.1-5.2-6.2-7.7-9.4c-2.3-2.9-4.6-5.8-6.6-8.9
		c-1.9-2.8-3.8-5.7-4-9.3c-0.2-3-0.6-5.9-0.7-8.9c0-1.1,0.4-2.2,0.7-3.7c-0.1-0.1-0.5-0.5-0.9-1c-1,0.9-1,2.6-2.9,2.4
		c-1.8-0.1-2.6-1-2.7-2.5c-0.2-3.6-1.6-6.8-4.2-9.1c-4.1-3.6-3.8-8.1-3.3-12.6c0.2-1.8,1-3.6,2-5.1c1.8-2.6,5.7-2,7.3,0.8
		c0.6,1.1,1.2,2.2,1.7,3.4c3.2-1,3.2-1,2.6-4.2c-0.3-1.5-0.7-3-0.7-4.5c0-0.9,0.4-2.2,1-2.6c1.9-1.2,4.1-2.1,6.2-2.8
		c2.1-0.8,4.2-1.5,6.4-1.7c3-0.3,6,0,9,0c0.5,0,1,0.3,1.4,0.2c3.6-0.8,7.1-0.2,10.7,0.5c2.7,0.5,5.4,0.8,8.2,1
		c4.1,0.3,8.3,0.3,12.4,0.9c2.4,0.3,4.6,1.6,6.8,2.6c1.5,0.6,3.2,1,4.3,2.1c1.9,1.8,5.1,2.6,4.8,6.2c-0.1,1.8,0.6,3.6,1,6
		c1.7-2,3-3.6,4.4-5.1c0.8-0.9,1.7-2,2.7-2.4c1.8-0.7,4.3,1.5,4.5,3.5c0.5,5.7-1.1,11-3.5,16.1c-0.7,1.5-1.2,3.2-2,4.7
		c-0.3,0.6-1.2,1.4-1.9,1.4c-1.4,0-1.9,0.6-2.2,1.8c-0.9,3.3-1,3.4-4.9,2.6c-0.6,2.3-1,4.6-1.8,6.8c-1.1,2.8-2.4,5.5-3.8,8.2
		C122,438.5,118.7,442.5,117.9,443.5c1-2,4.2-7.2,5.3-9.2c2.1-4,2.8-8.2,2.5-12.6c-0.1-0.7-0.4-1.4-0.7-2.5
		c-1.8,1.4-3.2,2.5-4.7,3.7c-1.3,1-1.7,2-1.2,3.7c0.4,1.3,0.5,2.8,0.7,4.2c-0.2,0-0.5,0.1-0.7,0.1c-1.1-6.5-6.5-11.3-7.6-18.1
		c1.8,2.8,3.5,5.4,5.3,8c0.2,0.4,1.2,0.7,1.5,0.5c2.4-1.8,5.1-3.4,6.8-5.7c2.3-3,2.9-6.6,1.3-10.3c-0.5-1.1-1-2.4-1-3.6
		c0.2-2.8,0.6-5.6,1.1-8.3c0.4-2.6-0.2-3.8-2.6-4.9c-1.2-0.6-2.4-1.2-3.6-1.8c-2-0.9-4.1-2-6.2-2.5c-1.3-0.3-3,0.1-4.1,0.7
		c-3.1,1.7-6.1,3.8-9.1,5.7c-1.4,0.9-2.9,1.8-4.5,2.9c1.9,1.5,3.4,1.2,5,0.3c3.8-2,7.5-4.1,11.3-6.1c1.5-0.8,2.9-0.8,4.1,0.7
		c0.9,1.1,2.2,2,3.3,3c1,0.8,1.4,1.8,0.5,3.1c-0.5-0.3-1-0.7-1.5-0.9c-1.9-0.6-4.1-1.8-5.8-1.4c-2.4,0.7-4.3,2.7-6.5,4.2
		c0,0.2,0.1,0.5,0.1,0.7c1.5,0.1,2.9,0.3,4.4,0.2c1.8-0.2,3.2-0.4,4.5,1.5c0.4,0.6,2.2,0.2,3.4,0.2c0.4,0,0.8-0.4,1.2-0.5
		c-2.3,3.6-6.4,2.9-9.6,4.3c0.7-0.4,1.5-0.7,2.1-1.1c0.5-0.4,0.9-1,1.3-1.5c0,0,0-0.5-0.5-0.6c-1.8-0.6-13.1-1-14.1-0.5
		c0.4,2.3,2.6,2.7,4,3.8c-1-0.1-2-0.1-3.5-0.2c2.7,2.9,5.6,4.5,9.3,5.1c-4.2,1.4-6.8,0.4-9.7-3.1c-1.2-1.5-2.5-2.8-3.8-4.2
		c-0.2,0.1-0.5,0.1-0.7,0.2c0.1,1.1,0,2.3,0.4,3.3c0.9,2.2,0.1,3.8-0.9,5.5c-0.3-1.7-0.5-3.3-0.5-5c0-1.7,0.3-3.4,0.3-5.1
		c0-1.5,0-3.3-1.8-3.8c-1.2-0.4-2.9,1.8-3.1,3.6c0,0.4,0,0.8-0.1,1.2c-0.1,0.8-0.4,1.6-0.5,2.4c-0.2,1.5-0.6,3.1-0.3,4.5
		c0.9,3.6,1.3,7.1-0.3,10.7c-1.1,2.5-0.6,5.1,0.2,7.5c0.3,0.8,1.1,1.8,1.8,1.9c0.7,0.1,1.7-0.8,2.1-1.6c0.8-1.3,1.2-2.8,1.9-4.2
		c0.2-0.5,0.7-0.9,1-1.4c0.3,0.5,0.6,1,0.9,1.6c0.3,0.6,0.2,1.5,0.6,1.8c1,0.6,2.2,0.8,3.5,1.2c1-2.3-0.1-4.4-1.1-6.5
		c4.3,0.6,11.6,7,11.5,10.1c-1.2-1.2-2.4-2.3-3.7-3.4c-1.3-1.1-2.6-2.1-4.1-3.4c-0.2,0.8-0.4,1.2-0.4,1.5c-0.5,4.3-0.9,4.5-4.4,2
		c-2.3-1.7-3.9-1.2-4.7,1.3c-0.7,2.3-4.1,3.1-5.9,1.4c-1.1-1.1-2.2-2-3.2-2.9c0.3-0.4,1-0.9,1.3-1.6c0.6-1.7,1-3.4,1.3-5.2
		c0.3-1.7,0.8-3.4,0.7-5.1c-0.2-3-0.7-5.9-1.1-8.9c0-0.2-0.2-0.3-0.5-0.7c-0.4,0.8-0.8,1.4-1.1,2c-1.3,3.3-2.8,6.2-6,8.2
		c-5.4,3.4-12.9,1.5-15.5-4.3c-0.9-1.9-1.3-4-1.9-6c-0.5-1.7-0.8-3.4-1.2-5.1c-0.2,0-0.5,0.1-0.7,0.1c0,0.8-0.1,1.6-0.2,2.4
		c-0.2,2.7-0.5,5.4-0.5,8c0,2.2,0.1,4.5,0.7,6.6c0.7,2.5,2.8,4.1,5.2,4.8c0.9,0.3,2.2-1,3.4-1.6c0.1,0,0.2,0.1,0.3,0.2
		c-1.3,2.9-2.6,5.8-3.9,9c-2.1-5.3-2.1-5.3-3.7-6c-0.2,0.9-0.7,1.9-0.7,2.7c0.3,3.6,0.5,7.1,1.2,10.6c0.4,2.1,1.3,4.2,2.6,5.9
		c3.9,5.4,8.2,10.5,12.2,15.8c3.6,4.7,7.3,6.1,13,4.8c1-0.2,2-0.1,3,0c3.4,0.2,6.9,1.6,9.8-1.2c2.2-2.1,4.3-4.4,6.4-6.7
		C112.2,448.9,112.7,446.7,117.9,443.5z M97.8,383.2c-0.2-0.3-0.4-0.5-0.7-0.8c-1.9,1.5-3.6,3-5.6,4.4c-3.4,2.3-4.6,2.7-6.5,2.3
		c1.8-1.5,3.7-3,5.5-4.5c-0.1-0.1-0.2-0.3-0.3-0.4c-1.7,0.9-3.4,2.1-5.3,2.8c-1.9,0.8-4,1.3-5.9-0.5c6.4-1.8,8-2.6,8.9-4.6
		c-7.8,3.2-8.3,3.3-10.1,2.5c1.1-0.8,2.3-1.6,3.8-2.7c-3.2-0.7-5.8-1.7-9-0.7c1.1,1,1.8,1.6,3,2.7c-1.4-0.2-2.4-0.2-3.3-0.4
		c-3.5-0.7-6.9-0.7-9.9,1.6c-3,2.2-3.3,7-0.3,8.9c4.6,3,9.7,3,15,2.1c-2.5-3.8-6.7-5.5-10.7-4.6c-0.6,0.1-1.4-0.1-2.1-0.2
		c0.2-0.7,0.3-1.5,0.7-2c0.3-0.5,0.9-0.8,1.5-1.1c2.4-1.1,4.7-0.5,6.8,0.6c2.6,1.4,5.2,3,7.7,4.7c1,0.7,1.9,0.9,3,0.4
		c5.1-2.5,10.1-4.9,15.1-7.4c1.1-0.6,2-1.6,3-2.4c-0.1-0.3-0.3-0.5-0.4-0.8c-0.9,0.3-1.9,0.5-2.7,1c-1.7,1.2-3.2,2.8-5.7,2.6
		C95,385.6,96.4,384.4,97.8,383.2z M56.4,405.7c0.1,0,0.2,0,0.3-0.1c0-1.2,0.1-2.3,0-3.5c-0.3-3.6-1.1-7-3.7-9.6
		c-1.6-1.7-3.5-1.6-4.6,0.4c-0.9,1.5-1.4,3.3-1.7,5c-0.7,4.1-0.4,8,3.1,11.1c1,0.9,1.9,2,2.4,3.2c0.9,2,1.3,4.1,2.1,6.1
		c0.3,0.9,1,1.6,1.6,2.4c0.6-0.6,1.3-1.1,1.6-1.9c0.4-1,0.6-2.1,0.5-3.1C57.5,412.4,56.9,409,56.4,405.7z M141.5,399.1
		c0-1.2,0.3-2.1-0.1-2.8c-0.5-1.1-1.2-2.3-2.2-2.8c-0.5-0.3-1.9,0.6-2.6,1.3c-2.6,3-3.2,3.1-3.5,4.1c-0.4,1.3-1.6,2.4-1.9,3.7
		c-0.6,2.3-0.8,4.7-1.3,7.1c-0.4,2.2-1,4.3-1.4,6.5c-0.2,1.2-0.2,2.5,0.1,3.6c0.2,0.7,1.3,1.2,1.9,1.8c0.4-0.6,0.8-1.2,1.2-1.8
		c0.6-0.9,1.1-2.7,1.6-2.7c2.4,0.2,2.9-1.1,3.3-3c0.3-1.1,0.9-2.1,1.4-3.1C140,407.1,141.7,403.2,141.5,399.1z"/>
	<path d="M101.5,451c-6.3-3-12.5-4.4-19.2-0.6c2.4-4.1,5.8-4,9.3-3.8C96.7,446.7,99.3,447.9,101.5,451z"/>
	<path d="M76.7,424.6c1.2-1.7,2.4-3.6,3.7-5.3c0.8-1.1,1.8-1.1,2.6,0.2c-3,2.5-3.4,4.9-0.9,7c-0.4,0.4-0.8,0.8-0.9,1
		C79.6,426.4,78.4,425.6,76.7,424.6z"/>
	<path d="M97.5,441.9c-3.6,2-10.4,2.1-13.7,0c0.9-1.5,1.3-1.5,6.8-1.4C94.9,440.5,96.1,440.1,97.5,441.9z"/>
	<path d="M74,423.5c-2.2,3.1-4.3,5.9-6.7,9.2C67.5,429.4,71.1,424.5,74,423.5z"/>
	<path d="M103.2,402.6c2.5,1,4.8,1,7.4,0C108.3,404,105.1,404,103.2,402.6z"/>
	<path d="M65.2,385.6c3.1-2,8.9-1.1,11.2,1.9c-1.8-0.5-3.6-1.3-5.4-1.6C69.2,385.6,67.3,385.7,65.2,385.6z"/>
	<path d="M54.5,409.8c-2.5-1.4-3.8-4.8-3-7.4c0.1-0.3,0.4-0.6,0.3-0.9c-0.1-0.7-0.4-1.4-0.6-2.1c-0.5,0.5-1.1,0.9-1.5,1.4
		c-0.3,0.4-0.3,1-0.7,1.5c-0.5-2.5-0.6-4.9,0.4-7.2c0.4-1,1.4-0.9,1.8-0.1c1.9,3.2,4.4,6.1,3.3,10.3
		C54.2,406.7,54.5,408.3,54.5,409.8z"/>
	<path d="M138.5,405.8c-0.5-1.3-0.9-2.5-1.4-4c-1.5,1.3-1.7,2.5-0.9,3.8c0.8,1.2,0.6,2.2-0.3,3.3c-1.2,1.6-2.3,3.2-3.5,4.8
		c-0.2,0.3-0.8,0.4-1.3,0.6c-0.1-0.5-0.3-0.9-0.2-1.4c0.3-1.2,0.6-2.4,1.1-3.5c0.8-1.6,1.8-3.1,0.9-5c-0.1-0.2,0-0.7,0.2-0.9
		c1.3-1.7,2.5-3.5,4-5.1c0.4-0.4,1.4-0.8,1.8-0.6c0.4,0.2,0.8,1.1,0.8,1.7c0.1,1.6,0,3.2-0.1,4.7c0,0.6-0.4,1.1-0.7,1.6
		C138.9,405.9,138.7,405.9,138.5,405.8z"/>
</g>
<path fill="#E3C301" stroke="#000000" stroke-width="2" stroke-miterlimit="10" d="M138.4,422c1.9,3.9,0.3,8-1.7,9.2
	c-2.4,1.4-6.8-0.8-8.1-5c-1.3-4.1,1.2-5.3,1.7-3c0.6,2.5,3.3,3.6,4.3,2.3c1.6-2.1-1.6-6.5-1.4-7.7C133.6,415.4,136.5,418,138.4,422z
	"/>
<g>
	<path d="M177.3,367.9v1.9c-0.1,0.3-0.3,0.5-0.4,0.8c-0.6,3.2-1,6.5-3.1,9.2c-1.5,2-3.3,3.8-5,5.8c-3.5,4.2-7.6,7.6-12.7,9.7
		c-3.7,1.6-7.5,2.9-11.2,4.4c-1.1,0.4-2.7,2.5-2.7,2.5c0.1-1.6,0.4-3.2,0.4-4.7c0-2.7-1.7-4.4-4.3-4.5c-1.3,0-2.3-0.3-2.2-1.9
		c0-1.6,0.1-3.2-1.2-4.5c-0.7-0.7-1.5-1.3-2.3-2c1.3-1.3,1.1-2.7,0.2-4c-0.8-1.1-1.7-2.2-2.8-3c-4.7-3.3-10.4-4.7-15.7-6.5
		c-4.5-1.6-9.3-2.6-13.9-3.9c-1.6-0.4-2.9-0.8-4.7-0.2c-1.7,0.6-3.9,0.2-5.8-0.2c-1.8-0.4-3.3-0.9-5,0.5c-0.5,0.4-1.5,0.3-2.2,0.3
		c-0.7,0-1.5-0.3-2.2-0.4c-4.4-0.2-8.7,0.5-13.1,1.5c-3.8,0.8-7.4,1.9-9.4,5.6c-0.8,1.5-2.3,3.1-1,5c-4,3.3-4.7,7.6-3.7,12.5
		c-4.4-0.9-6.2,0.3-7,4.7c-0.4,2-0.3,4.7-0.7,6.8c0,0-1.4-1.6-2-1.9c-9.1-4.3-17.5-9.6-25.8-15.2c-1.8-1.3-3.7-2.8-5-4.6
		c-1.4-2-2.3-4.4-3.3-6.7c0-1.1-0.1-2.6-0.1-3.7c1.5-3.7,3.5-6.6,7.7-7.6c3.2-0.8,6.1-0.6,8.6,1c-2.2,0-4.5-0.1-6.9,0
		c-2.2,0.2-3.5,1.7-3.5,3.4c0.1,2.1,1.8,2.7,3.4,2.7c3.2,0,6.5,0,9.5-0.7c2.9-0.7,6-1.8,8.3-3.6c5.7-4.4,8.8-10.8,11.8-17.2
		c2.2-4.8,4-9.8,6-14.7c2.3-5.6,5.9-10.4,10-14.8c3.2-3.4,7-6,11.9-6.5c1.7-0.2,3.3-0.5,4.9-0.7h3.9c0.6,0.1,1.1,0.3,1.7,0.4
		c3,0.2,6.1,0.2,9.1,0.7c4.7,0.8,9.3,2.1,14,3.2c3.6,0.8,7.4,1.6,9.8,4.5c3.5,4.2,6.4,8.9,9.3,13.5c4,6.2,7.1,12.9,9.5,19.8
		c0.8,2.2,1.9,4.5,3.4,6.3c3.3,3.8,7.9,5.6,12.4,7.5c3.7,1.5,7.6,2.5,11.6,2.3c2-0.1,3.9-0.6,4.8-2.6c0.9-2,0-3.6-1.5-5
		c0.9,0,1.8,0,2.4,0.5C173.3,364.8,175.3,366.4,177.3,367.9z"/>
	<path d="M166.5,362.7c-2.7,0.3-5.3,0.8-7.4,2.6c0.1,0.2,0.1,0.3,0.2,0.5c1.2-0.3,2.4-0.6,3.6-0.8c1.3-0.2,2.6-0.4,3.8-0.2
		c0.8,0.1,1.4,1,2.1,1.6c-0.6,0.7-1.3,2-1.9,2c-3,0-6.1-0.4-9.1-0.7c-0.9-0.1-1.7-0.6-2.9-1C158.7,364.4,162,361.8,166.5,362.7z"/>
	<path d="M30.9,367.7c-2.8,0.4-5.7,0.9-8.5,1.3c-0.9,0.1-1.8,0-2.7-0.2c-0.6-0.2-1.1-0.7-1.6-1.1c0.5-0.5,0.9-1.3,1.5-1.5
		c1.1-0.3,2.4-0.5,3.6-0.5c2.2,0.1,4.4,0.4,6.6,0.7c0.4,0.1,0.7,0.4,1.1,0.7C30.9,367.3,30.9,367.5,30.9,367.7z"/>
</g>
<g>
	<path d="M96.7,423.8c0.4,0.3,4,2.8,5.1,3.7s1.1,0.9,1.7,1.2c4.2,1.8,7.7,4.4,10.4,8.2c1,1.5,2.6,2.6,4.1,3.7c0.6,0.4,3.8,1.9,5,2.1
		c1.8,0.2,3.6-0.2,5.7,0c-0.8,3.3-2.9,5.5-5.4,6.4c-5.8,2.2-10.7,0-15.3-3.5c-3.1-2.3-6.5-4.3-9.7-6.5c-0.3-0.2-0.8-0.3-1.2-0.4
		c-4.1-0.2-8.2-0.2-12.2-0.4c-1.4-0.1-2.4,0.4-3.4,1.6c-3.2,3.6-6.7,7.1-11.3,8.9c-3.6,1.4-7.5,1.7-11-0.4c-1.5-0.9-3.1-2.8-4.2-5.3
		c3.3-0.5,5.9-0.2,8.6-0.6c0.7-0.2,1.7-0.5,2.4-0.9c2.5-2.8,4.9-5.8,7.5-8.5c1.9-1.9,4.2-3.5,6-5.4c1.9-2.1,4.7-1.9,6.9-3.2
		c1.5-0.9,2.3-0.1,3.2,2.5c1.5,1.6,2.5,0.8,4-1.4c0.3-0.5,0-1.2,0.8-1.7C94.7,423.3,95.8,423.8,96.7,423.8z"/>
</g>
<g>
	<path fill="#FFFFFF" d="M75.8,328.8c-0.3,0.3-0.5,0.7-0.6,1.1c-0.1,0.4-0.1,0.8,0.1,1.3c0.2,0.5,0.5,0.8,1,0.9
		c0.5,0.1,1,0.2,1.4,0.1c0.4-0.1,1-0.2,1.8-0.4c0.8-0.2,1.6-0.5,2.4-0.8c0.8-0.3,1.8-0.7,3.2-1.1c1.3-0.4,2.5-0.7,3.4-1
		c1-0.3,2-0.4,3.1-0.5c1.1-0.1,2.2,0,3.5,0c1.2,0.1,2.4,0.2,3.4,0.5s2.1,0.7,3.1,1.3c1,0.6,2,1.3,2.9,2.1c0.9,0.8,1.7,1.5,2.4,2.4
		c0.7,0.8,1.5,1.7,2.4,2.6l0.8,0.7l-0.7,1.3c-0.1,1.7-0.4,3-0.8,3.9c-0.5,0.9-1.1,1.8-1.9,2.5c-0.8,0.7-1.7,1.4-2.6,2.1
		c-0.9,0.6-1.8,1.1-2.7,1.3c-0.9,0.2-2,0.3-3.4,0.3c-1.3,0-2.7,0-4,0v4.4c0,0,0.1,2,0.2,2.7c0.1,0.7,0.5,1.1,0.9,1.4
		c0.5,0.3,1.2,0.4,2.1,0.4l-0.1,1.2c-0.8-0.1-1.7-0.2-2.6-0.3c-1-0.1-2-0.1-3.1,0c-1.1,0.1-2.2,0.3-3.4,0.8
		c-1.1,0.4-1.9,0.7-2.4,0.9l-0.7,0.2l0.1-1.7h0.5c0.3,0,0.6-0.1,1-0.3c0.3-0.2,0.6-0.5,0.9-0.9c0.3-0.4,0.5-1,0.8-2l0.1-16.9
		c-0.1-0.8-0.3-1.4-0.6-1.6c-0.3-0.2-0.9-0.3-1.7-0.4c-0.3,0-0.4-0.2-0.3-0.8c0.1-0.6,0.3-0.8,0.6-0.8c3.7,0.1,6.9,0.2,9.8,0.2
		c0.2,0,0.4,0.2,0.6,0.7c0.1,0.5,0,0.7-0.6,0.7l-0.5,0c-0.5,0.3-0.8,0.8-1.2,1.3c-0.3,0.5-0.5,1.2-0.5,2.1l-0.2,6.5l4.2-0.1
		c1.8-0.1,3.2-0.6,4.2-1.4c1-0.9,1.5-2.1,1.5-3.8c0-1.6-0.1-2.8-0.3-3.8c-0.2-1-0.6-1.9-1.4-2.8c0,0-1.6-1.6-2.4-2.1
		c-0.8-0.6-1.7-0.9-2.5-1.2c-0.8-0.2-1.8-0.4-2.9-0.4c-1.1-0.1-2.4,0-3.7,0.2c-1.3,0.2-2.8,0.5-4.3,1c-1.5,0.4-2.9,0.9-4,1.2
		c-1.2,0.4-2.4,0.6-3.6,0.7c-1.2,0.1-2.2,0-2.9-0.3c-0.7-0.3-1.3-0.7-1.9-1.1c-0.5-0.5-0.8-1.1-0.8-1.9c0-0.8,0.2-1.5,0.6-2.2
		c0.4-0.6,0.9-1,1.3-1.2c0.4-0.1,1-0.2,1.6-0.3c0.6-0.1,1,0.2,1.3,0.8C76.5,328.3,76,328.5,75.8,328.8z"/>
</g>
<path fill="#3F3F3F" d="M147.5,369.9c2.6,1.4,7.2,5.7,7.2,5.7c-3.8-0.7-7.3-2-10.4-3.9l4.9,5.7c-3-0.7-5.5-2-7.6-3.9l3.1,5
	c-2-0.4-3.9-1.4-5.7-3.2l1.2,3.5c-3.8-2.7-6.9-6-9.4-10c0,0,3.3,0.7,3.7,0.9c-0.7-0.3-3-4.3-2.9-5.4l4.7,2.6c-1.9-1.8-3-5.3-3.9-9
	l5,4.6c-1.7-1.8-2-4.8-1.9-8c2.6,8.9,13.8,16.5,20.7,16.1C156,371.6,148.1,370.4,147.5,369.9z"/>
<path fill="#3F3F3F" d="M75.1,408.5c1-0.6,7.5-6.3,7.8-6.4C82.1,405.3,78.3,407.9,75.1,408.5z"/>
<path fill="#3F3F3F" d="M83.2,399c-0.8,2-7.2,4.8-9.7,4.6C74.7,403.3,81.9,399.9,83.2,399z"/>
<g id="bUxcTn.tif">
	<g>
		<path d="M97.6,366.3c3,0.8,10.2,1.8,13.1,2.7c4.5,1.4,11.7,4.4,14.8,5.9c1.2,0.6,6.1,3,7.1,4c1.3,1.2,2.5,3.9,1.4,5.6
			c3.5,2.2,3.5,4.9,3.3,8.3c-0.1,2.2-4.4,6.2-6.3,7.7c-0.4,0.3-1.4-2.5-1.4-2.9c-0.1-1.6,0.1-3.2,0.1-4.8c0-0.6-0.2-1.3-0.5-1.8
			c-0.2-0.4-0.8-0.6-1.2-0.8c-4.9-2.9-15.1-7.5-15.3-6.6c-2.4-0.3-4.8-0.8-7.2-1c-2.3-0.2-4.6-0.2-6.9-0.5
			c-5.2-0.5-11.7-0.9-16.8-1.5c-0.8-0.1-8.3-0.8-11.6,0.5c-2.7,1.1-8.2,2.1-9.6,4.9c-1,2-1.3,3-1.3,5.4c0,0.5,1,3.1,0.6,3.7
			c-1.1,1.9-0.9,1-1.9,1.9c-3.1,0.4-3.5-3.2-5.1-6.3c-1.1-2.1-0.4-4.8,0.1-7.1c0.3-1.6,1.8-3.1,2.6-4.5c0.1-0.9-0.1-2.2,0.3-3
			c1.8-2.9,3.8-5.3,7.4-6.6c4.4-1.6,8.7-1.9,13.2-2.4c2.4-0.3,10-1.3,10.6-1.5C88.1,365.7,96.5,366.3,97.6,366.3z M84.7,368
			c1.9,0.8,3.4,1.6,5,2.2c2,0.8,4.2,1.2,6.2,2.1c4.1,1.8,8,3.9,12,5.8c0.5,0.2,1,0.3,1.4,0.5c2.6,1.2,5.2,2.2,7.7,3.6
			c4.1,2.2,8,4.8,12.1,7c1.8,1,2.8,1.6,1.8,3.9c-0.5,1.2-1,3,0.4,4.5c1-1.2,1.8-2.3,2.6-3.4c1.2-1.7,1.6-3.6,0.2-5.1
			c-1.7-2-3.8-3.8-5.8-5.5c-1.2-1-2.6-1.7-4-2.6c0.1-0.2,0.2-0.4,0.3-0.6c2,1,4.1,2,6.1,2.9c0.4,0.2,0.8,0.2,1.2,0.3
			c0-0.5,0.2-1,0.1-1.4c-0.1-0.5-0.5-1-0.9-1.2c-2.6-1.8-5-4.1-7.8-5.1c-7.9-2.8-15.9-5.1-23.9-7.6c-1.2-0.4-2.5-0.4-3.8-0.6
			c-0.1,0.2-0.1,0.4-0.2,0.6c1,0.5,1.9,1,2.9,1.5C93.8,369.1,89.7,366.6,84.7,368z M56.7,395.1c0.2-0.4,0.5-0.7,0.4-1
			c-0.1-1.2-0.4-2.5-0.5-3.7c-0.5-3.5,2-8.2,5.7-9.3c4-1.2,8.2-1.7,12.3-2.5c2.7-0.5,5.4-0.7,8.1-1.2c2.1-0.3,4.3-0.8,6.4-1.2
			c2.3-0.5,4.6-1,7.3-1.6c-0.8-0.7-1.2-1.1-1.6-1.3c-4.4-1.6-8.9-3.2-13.4-4.7c-1.2-0.4-2.6-0.8-3.9-0.6c-2.9,0.3-5.8,1.1-8.7,1.3
			c-5.2,0.5-8.8,3.4-11.6,7.5c0,0.1,0.1,0.2,0.1,0.3c2.9-1,5.9-1.9,8.8-2.9c-2.8,2.1-5.6,4-8.4,5.8c-2.8,1.8-4.4,4.2-4.2,7.6
			C53.8,390.4,54.5,393,56.7,395.1z M83,378.7c0,0.2,0,0.3,0.1,0.5c9.4,1.1,18.9,2.1,28.3,3.2c-2.8-2.2-5.6-3.8-8.5-5.5
			c-2-1.2-4-2.3-6.4-0.8c-0.4,0.2-1,0.1-1.5,0.2C91,377.1,87,377.9,83,378.7z"/>
		<path d="M35.7,447.3c1-0.8,1.8-1.7,2.8-2.3c1.4-0.9,1.6-2.1,1.7-3.6c0-3.2,0.1-6.5,0.4-9.7c0.2-1.3,1.2-2.5,1.7-3.9
			c0.6-1.3,1.1-2.7,1.6-4.1c-3.8,0.9-7.2,1.9-10.7,2.5c-1.6,0.3-3.4-0.2-5.1-0.3c-2-0.1-3.9-0.3-5.8-0.5c-1,5.1-3.1,7.2-6.9,7
			c-2.7-8.6,1.6-14.6,9-18.3c4.5-2.3,9.7-2.4,14.7-2.8c1.9-0.1,4.3,0,5.5-1c1.8-1.4,3.2-0.8,4.8-0.5c0.4,0.1,0.9,0.4,1.2,0.8
			c0.8,1.3,1.8,2.5,2.2,4c0.4,1.4,0.1,3.3,0.8,4.1c1.1,1.3,1.1,2.6,1.1,4.1c0,3.3,0.4,6.6,0.1,9.8c-0.2,1.9-1.1,3.9-1.9,5.7
			c-1.6,3.9-3.5,7.6-6.5,10.5c-3.3,3.3-7.4,4.5-12.1,3.6c-0.9-0.2-1.8-0.2-2.6-0.5c-2.9-0.9-5.2-4-5.1-7c0-0.4,0.8-1.1,1.3-1.2
			C30.4,443.4,34,445.2,35.7,447.3z M33.2,416.4c0.3-0.2,0.4-0.3,0.5-0.3c0.2,0,0.4-0.1,0.6,0c3.3,1.1,6.3-0.2,9.2-1.5
			c1.2-0.6,1.8-1.3,1.1-2.9c-1.2,0.2-2.5,0.4-3.7,0.5c-4.3,0.4-8.6,0.6-12.7,2c-5.2,1.7-9,4.9-11.5,9.6c-1.2,2.4-1.5,5.1,0.3,8.1
			c1.4-1.7,2.5-3,3.8-4.5c-0.8-0.5-1.3-0.8-1.8-1.1c0-0.2,0-0.4-0.1-0.6c1-0.3,1.9-0.8,2.9-0.8c4.2-0.1,8.3,0.1,12.5,0
			c4.2-0.1,8-1.7,10.8-4.9c0.6-0.7,1.1-1.8,1.2-2.7c0.1-1.2-0.2-1.9-1.8-1.2C40.8,417.5,37.1,418.4,33.2,416.4z M50.2,419.7
			c-0.9,0.1-1.7-0.1-2,0.2c-0.8,0.8-1.6,1.7-2.2,2.6c-1.6,2.7-1.5,6.3-4.1,8.5c-0.1,0.1-0.2,0.4-0.2,0.5c-0.3,2.9-1,5.9-0.7,8.7
			c0.3,3.1-0.3,5.3-2.8,6.9c-0.1,0,0,0.2,0,0.5c1.8,0,3.3-0.8,4.6-2c2.1-2,3.2-4.6,4.1-7.2c0.7-2.1,1.3-4.4,1.2-6.5
			C47.9,427.9,48.4,424,50.2,419.7z M51.6,420c-0.3,0.9-0.6,1.2-0.6,1.6c-0.2,3.4-0.5,6.8-0.6,10.3c-0.1,5.7-1.8,10.7-6.1,14.5
			c-2.7,2.4-6.1,3.5-9.7,3.2c-0.4,0-1.2-0.8-1.2-0.9c0.7-1.5-0.4-2.2-1.4-2.7c-1-0.5-2.1-0.9-3.2-1.1c-0.2,0-1,1-0.9,1.2
			c0.7,1.3,1.2,3,2.4,3.8c2.5,1.9,5.7,2.2,8.5,1.9c2.9-0.4,5.7-2.1,7.4-4.8c1.7-2.7,3-5.5,4.6-8.2C54.2,432.8,53.7,426.7,51.6,420z
			 M46.1,410.7c0.1,2.9,0.9,5.3,3.3,6.8c0.5,0.3,1.2,0.3,1.8,0.4c0.1-0.8,0.5-1.6,0.3-2.3c-0.2-0.8-1.1-1.5-1.3-2.3
			C49.8,411,48.4,410.3,46.1,410.7z"/>
		<path fill="#005F2B" d="M84.7,368c5-1.4,9.2,1,13.7,1.6c-1-0.5-1.9-1-2.9-1.5c0.1-0.2,0.1-0.4,0.2-0.6c1.3,0.2,2.6,0.3,3.8,0.6
			c8,2.5,16.1,4.8,23.9,7.6c2.9,1,5.2,3.3,7.8,5.1c0.4,0.3,0.7,0.8,0.9,1.2c0.1,0.4,0,0.9-0.1,1.4c-0.4-0.1-0.8-0.1-1.2-0.3
			c-2.1-0.9-4.1-1.9-6.1-2.9c-0.1,0.2-0.2,0.4-0.3,0.6c1.3,0.9,2.8,1.6,4,2.6c2,1.7,4.1,3.5,5.8,5.5c1.4,1.6,1,3.5-0.2,5.1
			c-0.8,1.1-1.6,2.1-2.6,3.4c-1.4-1.4-1-3.3-0.4-4.5c1-2.3,0-2.9-1.8-3.9c-4.1-2.2-8-4.7-12.1-7c-2.5-1.3-5.1-2.4-7.7-3.6
			c-0.5-0.2-1-0.3-1.4-0.5c-4-1.9-8-4-12-5.8c-2-0.9-4.1-1.3-6.2-2.1C88.1,369.7,86.6,368.9,84.7,368z"/>
		<path fill="#005F2B" d="M56.7,395.1c-2.3-2.1-2.9-4.7-3.1-7.5c-0.2-3.5,1.4-5.8,4.2-7.6c2.8-1.8,5.6-3.6,8.4-5.8
			c-2.9,1-5.9,1.9-8.8,2.9c0-0.1-0.2-0.2-0.1-0.3c2.8-4.1,6.4-7,11.6-7.5c2.9-0.3,5.8-1,8.7-1.3c1.3-0.1,2.7,0.2,3.9,0.6
			c4.5,1.5,8.9,3.1,13.4,4.7c0.4,0.2,0.8,0.6,1.6,1.3c-2.7,0.6-5,1.1-7.3,1.6c-2.1,0.4-4.3,0.9-6.4,1.2c-2.7,0.4-5.4,0.7-8.1,1.2
			c-4.1,0.7-8.3,1.2-12.3,2.5c-3.7,1.2-6.2,5.8-5.7,9.3c0.2,1.2,0.4,2.5,0.5,3.7C57.2,394.4,56.9,394.7,56.7,395.1z"/>
		<path fill="#005F2B" d="M83,378.7c4-0.8,8-1.6,12-2.4c0.5-0.1,1.1,0,1.5-0.2c2.4-1.5,4.4-0.4,6.4,0.8c2.8,1.7,5.7,3.3,8.5,5.5
			c-9.4-1.1-18.9-2.1-28.3-3.2C83,379,83,378.9,83,378.7z"/>
		<path fill="#005F2B" d="M33.2,416.4c3.9,1.9,7.6,1.1,11.1-0.5c1.6-0.7,2,0,1.8,1.2c-0.1,0.9-0.6,2-1.2,2.7
			c-2.8,3.3-6.6,4.8-10.8,4.9c-4.2,0.1-8.3-0.1-12.5,0c-1,0-1.9,0.5-2.9,0.8c0,0.2,0,0.4,0.1,0.6c0.5,0.3,1,0.6,1.8,1.1
			c-1.2,1.5-2.4,2.8-3.8,4.5c-1.7-3.1-1.5-5.8-0.3-8.1c2.5-4.7,6.3-7.8,11.5-9.6c4.2-1.4,8.5-1.5,12.7-2c1.3-0.1,2.5-0.3,3.7-0.5
			c0.8,1.6,0.2,2.3-1.1,2.9c-2.9,1.3-5.9,2.7-9.2,1.5c-0.2-0.1-0.4,0-0.6,0C33.6,416.2,33.5,416.2,33.2,416.4z"/>
		<path fill="#005F2B" d="M50.2,419.7c-1.8,4.3-2.3,8.2-2.1,12.3c0.1,2.2-0.5,4.4-1.2,6.5c-0.9,2.6-2,5.2-4.1,7.2
			c-1.3,1.2-2.7,2-4.6,2c0-0.2-0.1-0.4,0-0.5c2.6-1.6,3.2-3.8,2.8-6.9c-0.3-2.9,0.4-5.8,0.7-8.7c0-0.2,0.1-0.4,0.2-0.5
			c2.6-2.2,2.5-5.8,4.1-8.5c0.6-1,1.3-1.9,2.2-2.6C48.5,419.5,49.3,419.7,50.2,419.7z"/>
		<path fill="#005F2B" d="M51.6,420c2.1,6.7,2.6,12.8-0.8,18.7c-1.6,2.7-2.9,5.5-4.6,8.2c-1.7,2.7-4.5,4.4-7.4,4.8
			c-2.8,0.4-6.1,0-8.5-1.9c-1.1-0.9-1.7-2.5-2.4-3.8c-0.1-0.2,0.7-1.2,0.9-1.2c1.1,0.2,2.2,0.6,3.2,1.1c1,0.5,2.1,1.2,1.4,2.7
			c0,0.1,0.7,0.9,1.2,0.9c3.7,0.4,7-0.8,9.7-3.2c4.3-3.8,6-8.8,6.1-14.5c0.1-3.4,0.3-6.8,0.6-10.3C51,421.2,51.3,420.8,51.6,420z"/>
		<path fill="#005F2B" d="M46.1,410.7c2.3-0.4,3.7,0.4,4.2,2.6c0.2,0.8,1.1,1.5,1.3,2.3c0.2,0.7-0.2,1.5-0.3,2.3
			c-0.6-0.1-1.3-0.1-1.8-0.4C47,415.9,46.2,413.5,46.1,410.7z"/>
	</g>
</g>
<path fill="#3F3F3F" d="M35.5,370.8c-2.6,1.4-7.2,5.7-7.2,5.7c3.8-0.7,7.3-2,10.4-3.9l-4.9,5.7c3-0.7,5.5-2,7.6-3.9l-3.1,5
	c2-0.4,3.9-1.4,5.7-3.2l-1.2,3.5c3.8-2.7,6.9-6,9.4-10c0,0-3.3,0.7-3.7,0.9c0.7-0.3,3-4.3,2.9-5.4l-4.7,2.6c1.9-1.8,3-5.3,3.9-9
	l-5,4.6c1.7-1.8,2-4.8,1.9-8c-2.6,8.9-13.8,16.5-20.7,16.1C27.1,372.4,34.9,371.3,35.5,370.8z"/>
<g>
	<path d="M222.1,434.2L222.1,434.2c0.5,0.4,2,0.7,4.6,0.9l6.5-0.7h2.2c2.2,0,4.1,0.8,5.7,2.3c0.7,0.8,1.1,1.6,1.4,2.2
		c0.5,0.2,0.8,0.4,0.8,0.5l-0.8,1.3c0,1.6-0.9,3.1-2.6,4.4c-1.7,0.8-3,1.2-4.1,1.2h-0.5l-2.4-0.2l-0.1,2.3v0.1l-0.2,0.3l0.2,0.5
		c-0.3,0.1-0.5,0.1-0.5,0.2l0.1,0.3h0.1l0.3-0.2h0.1c0.2,1.8,0.6,2.7,1.4,2.7l0.4-0.1h0.5l0.1,0.8l-0.7,0.1h-2.7
		c-0.9,0-2.3,0.2-4.1,0.7c-0.3-0.4-0.4-0.7-0.4-0.8h0.1c1.4-0.5,2.1-1.1,2.1-1.8l0.1-0.9v-11c-0.6-0.6-1.2-0.9-1.6-1.1v-0.4
		c0.1-0.2,0.3-0.3,0.5-0.3l1.9,0.2h0.4l4-0.2l0.1,0.5c-0.8,0-1.5,0.6-1.9,1.7c-0.2,0.3-0.2,0.6-0.2,1v1.7c-0.1,0.2-0.2,0.3-0.2,0.5
		c0.2,0.1,0.3,0.2,0.3,0.5v0.1c-0.2,0.2-0.3,0.4-0.3,0.6c0.2,0,0.3,0.2,0.3,0.6l0.1,0.1h0.1l2.3,0.1c1.4,0,2.5-0.8,3.4-2.4
		c0.2-1,0.3-1.7,0.3-2.3c-0.2-1.4-0.6-2.2-1-2.4l-0.1-0.1l0.5,0l0.3-0.3l-0.1,0.1l-0.2-0.5l-0.4-0.2l-0.1,0.3l-0.4,0l-0.1,0.2h-0.1
		c-1-1-2.3-1.5-3.7-1.5c0-0.1-0.4-0.1-1.1-0.1c-1.6,0-4,0.5-7.3,1.4h-0.5c-1.2-0.1-1.8-0.4-1.8-0.6L222.1,434.2z"/>
	<path d="M256,434.2c1.6,0.2,2.8,0.7,3.7,1.3c0.4,0.4,0.6,0.7,0.6,0.9l0.5-0.1l3,3.6v0.1c-0.2,0.4-0.4,1.2-0.5,2.5
		c-0.4,1.2-1.1,2.2-2.3,3.1l-0.2,0.3c0.1,0,0.5,0.4,1,1.1v0.1l-0.1,0.5l0.8,0.6l0.2-0.3h0.1c1.1,1.1,2,2.2,2.6,3.4
		c0.5,1.3,1.5,2.8,3,4.4c0.8,0.5,1.4,0.8,1.7,0.8l2.5-0.5h0.1l0.3,0.1v0.3c-0.7,1-1.8,1.5-3.2,1.5c-1.8,0.1-3.3-0.6-4.7-2.1
		c-1.8-1.9-3-3.4-3.6-4.5l-2.9-4.3l-1.4,0.1h-1.6l-0.4-0.1l-0.2,0.1v2.6c0,0.1-0.2,0.2-0.5,0.2v0.3c0,0.1,0.1,0.2,0.4,0.2
		c0,1,0.3,1.7,1,2.1l0.8,0.1v0.7l-2.7-0.2c-0.7,0-2.1,0.4-3.9,1.1V454l-0.1-0.8c1,0,1.5-0.7,1.7-2.2v-7l0.1-3.1
		c0-0.9-0.4-1.3-1.2-1.3h-0.1c-0.1-0.1-0.1-0.4-0.1-0.6s0.1-0.4,0.3-0.4c2.7,0.2,4.6,0.2,5.8,0.1v0.9h-0.7c-0.6,0.5-0.9,1.4-0.9,2.6
		v0.9l-0.1,2.5l0.2,0.1c2.5,0,3.8-0.4,4.1-1.1c0.7-0.5,1.1-1.4,1.1-3c0-2.1-0.6-3.6-1.8-4.4c-1-0.7-2.2-1-3.7-1.1
		c-2.2,0.1-4.7,0.4-7.6,1l-0.5,0.1c-1-0.2-1.5-0.4-1.5-0.5l-0.9-2.3h0.1c1,0.6,2.3,0.8,3.9,0.8c0.8,0,2.1-0.2,3.8-0.5
		C253.7,434.3,255,434.1,256,434.2z"/>
	<path d="M266.7,434.6l3.9,0.1l0.8,0.6l0.5-0.4l1.8-0.1l-0.2,0.8c-0.6,0.1-1,0.4-1.2,0.7c-0.2,0.3-0.3,1.1-0.4,2.3v2.7l-0.2,0.6
		h-0.4l-0.7,0.9l0.4,0.5v0.5l0.6,0.3h0.3v0.6l0.2,5.8c0.1,0.9,0.4,1.4,0.9,1.8l0.9,0.2v0.8c-2.3-0.1-4.5-0.1-6.8,0l-0.1-1
		c0.6-0.1,0.9-0.2,1.1-0.5s0.3-0.7,0.3-1.5l-0.1-12.6c-0.2-0.7-0.4-1.2-0.6-1.5c-0.2-0.3-0.6-0.4-1.2-0.4L266.7,434.6z"/>
	<path d="M283.2,434.1c3.8,0.1,6.2,1.2,7.2,3.4c0.3,0.6,0.7,1.9,1.4,3.9c0.3,0.6,0.6,1.2,0.9,1.6v0.1c-0.3,0.5-0.9,2.1-1.7,4.7
		c-1.3,2.8-2.9,4.5-4.8,5.2c-1,0.3-2.1,0.4-3.2,0.4c-0.3,0-1.1-0.1-2.2-0.4h-1.2l-3.5,0.3l-0.2-0.1v-0.8c0.1-0.1,0.5-0.3,1.4-0.6
		c0.6-0.3,0.9-0.9,0.9-1.7l0.1-10c0-1.3-0.2-1.9-0.7-1.9c0-0.1-0.2-0.2-0.6-0.3l0.1-0.6c1.5,0.3,2.8,0.4,4,0.3s1.9-0.1,2,0
		c0,0.5-0.1,0.8-0.2,0.8c-0.7,0-1,0.3-1,0.9l-0.1,0.1c0,7.8,0.1,11.6,0.4,11.6c0.7,0.4,1.3,0.6,1.9,0.6h0.4c2.6,0,3.9-2.5,4-7.4
		c-0.1-2.7-0.7-4.7-1.6-6.2c-1.1-1.2-3.1-1.8-6.1-1.8c-2,0-3.7,0.2-5.1,0.7s-2.4,0.7-3,0.6c-1.1-0.2-1.7-0.4-1.7-0.5l-1-2.2h0.2
		c1.1,0.6,2.5,0.8,4.3,0.8c0.9,0,2.2-0.2,3.9-0.5C280.1,434.4,281.7,434.2,283.2,434.1z"/>
	<path d="M302.1,434.6h0.3l0.6,0.3l0.4-0.1h0.2c1-0.2,2.2-0.3,3.9-0.3c-0.1,1.4-0.1,2.3,0,2.9c0.1,0.5,0.3,1.3,0.5,2.2l-0.9,0.8
		c-0.7-1.3-1.4-2.2-1.9-2.6c-0.5-0.5-1-0.9-1.5-1.3c-0.5-0.4-1.4-0.7-2.7-0.8l-1.1,0.2h-0.4l-0.4,0.4v0.4l-0.3,0.8l0.3,1.7v3.4
		l3.5,0.1h1.1c0.4-0.3,0.6-0.5,0.8-0.8c0.1-0.2,0.3-0.5,0.4-0.9h1l0.1,5.7l-1.1-0.1c-0.1-0.7-0.3-1.2-0.6-1.8
		c-0.3-0.5-0.9-0.8-1.8-0.8l-1.9,0l-1.5,0v5.3c0.2,1,0.3,1.5,0.6,1.6c0.2,0.1,0.6,0.1,1,0.1s1.2-0.1,2.3-0.2v0.4l-0.3,0.3l0.7,0.2
		l0.2-0.5c1.2,0,2.5,0.1,3.8,0.3c1.3,0.2,2.2,0.3,2.6,0.3c0.4,0,0.9-0.1,1.5-0.4c0.6-0.3,0.9-0.1,0.9,0.6c0,0.6-0.2,0.9-0.4,0.9
		c-0.3,0-0.9,0.1-1.8,0.2c-0.9,0.1-1.6,0.1-2.2,0c-0.6-0.1-1.4-0.2-2.5-0.2c-1.1,0-2.7,0-4.7-0.1c-2-0.1-3.3-0.1-3.9,0
		c-0.6,0-1.1,0.1-1.7,0.1s-1.2,0-2,0l0.1-0.8c0.8-0.1,1.3-0.3,1.5-0.5c0.2-0.2,0.4-0.5,0.6-0.8s0.3-1.2,0.3-2.6l-0.1-5.8l0.3-0.2
		V442l0.2-0.2l0.2-0.1l0.2,0.1h0.2h0.2l0.1-0.2v-0.4h-0.3c-0.2,0.1-0.5,0.1-1,0.1l-0.2-2.1c-0.1-1.1-0.2-1.9-0.4-2.3
		c-0.1-0.4-0.4-0.7-0.7-0.9c-0.3-0.2-0.9-0.4-1.6-0.4l0.5-1.1L302.1,434.6z"/>
	<path d="M326.5,439.1c0.1,0,0.2,0.1,0.2,0.3l-0.1,0.9c0.1,0,0.1,0.1,0.1,0.4h0.2c0.6,0.1,1.2,0.3,1.8,0.8c0-0.1,0.1-0.2,0.4-0.2
		c0-0.2,0.2-0.4,0.6-0.7h0.2c0.1,0.1,0.2,0.2,0.2,0.4c-0.4,0.2-0.7,0.5-0.9,0.8h-0.1c0.4,0.5,0.7,1.1,0.9,2.1c0.2,0,0.3,0,0.3,0.1
		l0.9-0.1l0.1,0.2v0.3c0,0.1-0.1,0.2-0.2,0.2l-0.9-0.1c0,0.1-0.1,0.2-0.3,0.2c0,0.5-0.3,1.2-0.8,2c0.2,0,0.3,0.1,0.3,0.4
		c0.4,0.2,0.6,0.4,0.6,0.6c-0.1,0.2-0.2,0.3-0.3,0.4h-0.2l-0.6-0.7c-0.2,0-0.3-0.1-0.3-0.2c-0.8,0.6-1.4,0.8-2.1,0.8l0.1,0.1v0.2
		l-0.1,0.2l0.1,0.9l-0.1,0.1h-0.4l-0.2-0.2l0.2-0.8c-0.1,0-0.2-0.1-0.2-0.4c-0.7-0.1-1.4-0.4-2.1-0.8c0,0.1-0.2,0.3-0.5,0.4
		c0,0.1-0.1,0.3-0.4,0.5H323l-0.3-0.3v-0.2l0.7-0.6l0.1-0.4c-0.3-0.3-0.6-0.9-0.8-1.9l-0.4-0.2l-0.9,0.1l-0.1-0.1V444l0.2-0.1
		l0.9,0.1c0-0.1,0.1-0.1,0.4-0.1c0-0.6,0.3-1.3,0.8-2c0-0.1-0.3-0.5-0.8-0.9v-0.2l0.2-0.2h0.2l0.6,0.7l0.1-0.1h0.1
		c0.1,0,0.1,0.1,0.1,0.2h0.1c0.7-0.5,1.3-0.8,2-0.8c0-0.2,0-0.4,0.2-0.4l-0.2-1L326.5,439.1z M323.7,443.9l0.4,0.1l0.6-0.1l0.9,0.1
		l0.1-0.1v-0.1l-1.4-1.3C324.1,442.8,323.9,443.2,323.7,443.9z M325.2,444.4h-1.4c0,0.5,0.2,1,0.7,1.5c0-0.1,0.4-0.6,1.3-1.4v-0.1
		l-0.1-0.1v-0.1L325.2,444.4z M324.7,442.2c0.8,0.8,1.2,1.2,1.2,1.4h0.1l0.2-0.2l-0.1-0.9l0.1-0.4l-0.1-0.5
		C325.7,441.5,325.3,441.7,324.7,442.2z M325.9,444.9l-1.2,1.4c0.5,0.4,1,0.6,1.4,0.6h0.1l0.1-0.4l-0.1-0.6l0.2-0.8H325.9
		L325.9,444.9z M326.7,441.5L326.7,441.5l0.1,0.2l-0.1,0.4v0.9l-0.1,0.5l0.1,0.1h0.3c0-0.2,0.4-0.6,1.2-1.4
		C328.1,442,327.7,441.8,326.7,441.5z M326.6,444.9l0.1,0.5v1.4h0.1c0.5,0,0.9-0.2,1.4-0.6l-1.4-1.3L326.6,444.9z M328.4,442.5
		c0,0.2-0.4,0.6-1.3,1.4l0.1,0.2l1-0.1l0.6,0.1l0.4-0.1c0-0.3-0.2-0.8-0.6-1.4H328.4z M327.2,444.4l-0.1,0.3l1.4,1.3
		c0.4-0.6,0.6-1.1,0.6-1.5h-1.4L327.2,444.4z"/>
	<path d="M358.2,442.6c0-2.1,0-3.6,0-4.3s-0.1-1.3-0.2-1.6s-0.3-0.5-0.5-0.6s-0.5-0.1-0.9-0.1c-0.3,0-0.4,0-0.5,0s-0.1-0.1-0.1-0.2
		c0-0.1,0-0.2,0-0.4c0-0.2,0-0.3,0-0.3c0-0.1,0.1-0.2,0.1-0.2s0.2,0,0.3,0l3.3,0.1c0.6,0,1.2,0,1.8,0s1.1,0,1.7-0.1h0.3
		c0.2,0,0.3,0.1,0.3,0.4v0.2v0.3c0,0.2,0,0.3-0.1,0.3s-0.2,0.1-0.4,0.1c-0.5,0.1-0.9,0.2-1.2,0.4s-0.4,0.5-0.4,1
		c-0.3,0.6-0.4,0.9-0.3,1s0.2,0.3,0.1,0.7s-0.1,1-0.4,1.7c0.1,0.3,0.1,0.6-0.2,0.9c0.3,0.4,0.5,0.9,0.6,1.5
		c-0.1,2.2-0.1,3.6-0.1,4.1s0,1,0,1.4s0,0.8,0,1.2c0,0.4,0,0.7,0.1,1s0.2,0.5,0.3,0.6s0.3,0.2,0.5,0.3s0.5,0.1,0.8,0.1
		c0.3,0,0.5,0,0.5,0.1s0.1,0.2,0.1,0.4c0,0.3,0,0.5,0,0.5s-0.1,0.1-0.2,0.1h-0.3c-0.2,0-0.6,0-1.4-0.1s-2.5-0.1-5,0.1l-0.8,0h-0.1
		c-0.2,0-0.3,0-0.3-0.1s0-0.2,0-0.6c0-0.2,0-0.3,0.1-0.4s0.3-0.1,0.6-0.1c0.3,0,0.5-0.1,0.7-0.2s0.4-0.2,0.5-0.4s0.2-0.4,0.3-0.8
		s0.2-0.5,0.3-0.5c-0.1-0.7-0.1-1.2,0-1.4s0.1-0.6,0-1c0.4-0.1,0.5-0.3,0.5-0.5s-0.2-0.4-0.5-0.6v-2l-7.5,0.6c0,2.8,0.1,4.5,0.1,5
		s0.1,0.9,0.2,1.2s0.3,0.4,0.5,0.5s0.5,0.1,0.9,0.1c0.3,0,0.5,0,0.5,0.1s0.1,0.2,0.1,0.4c0,0.3,0,0.5,0,0.5s-0.1,0.1-0.2,0.1
		l-2.7-0.1l-0.1-0.1l-0.6-0.1l-0.3,0l-0.2-0.1l-0.2,0.2l-0.1,0.2h-0.5l-0.8-0.1c-0.8,0.1-1.7,0.3-2.8,0.7h-0.2c-0.2,0-0.2,0-0.3-0.1
		s0-0.2,0-0.5c0-0.1,0.1-0.3,0.4-0.4s0.5-0.3,0.6-0.3s0.3-0.1,0.4-0.1c0.5-0.2,0.8-0.4,1.1-0.7s0.4-0.7,0.5-1.3c0-0.4,0.1-1.4,0.1-3
		s0-3.7,0-6.3c0-1.1,0-2,0-2.6s-0.1-1.1-0.2-1.4s-0.2-0.5-0.4-0.6s-0.5-0.2-0.9-0.4c-0.3,0-0.5-0.1-0.5-0.1s-0.1-0.1-0.1-0.3v-0.3
		c0-0.3,0-0.4,0.1-0.5s0.2-0.1,0.4-0.1l3.7,0.3c0.5,0,1,0,1.5,0s1,0,1.6-0.1h0.3c0.2,0,0.3,0.1,0.3,0.4v0.2v0.3c0,0.2,0,0.3-0.1,0.3
		s-0.2,0.1-0.5,0.1c-0.8,0.1-1.3,0.5-1.4,1.4c-0.5,0.4-0.8,0.7-0.6,0.9s0.2,0.4,0.2,0.9s0.1,0.8,0.3,1.2c0,0.6,0,1.5,0,2.9
		L358.2,442.6z"/>
	<path d="M373.8,434c1,0,2.4,0.1,4.2,0.3v0.1c-1.2,0.7-2.4,1.1-3.7,1.1c-1.5,0.3-2.2,0.5-2.2,0.6c-0.5,0.2-1,0.8-1.4,1.7
		c-0.8,1.4-1.2,3.2-1.2,5.5v0.2c0,2.4,0.4,4.2,1.3,5.3c0.9,1.5,1.9,2.4,2.8,2.7c0.3,0.1,0.6,0.2,0.9,0.3s0.7,0,1.2-0.2
		s1.1-0.5,1.9-1c0.1-0.3,0.3-0.5,0.7-0.5h0v-0.5l0-0.2c0.9-1.2,1.3-2.8,1.3-4.6l0-0.7c0-2.1-0.4-3.7-1.3-4.9c-0.9-1.4-1.9-2.1-3-2.3
		l-2.3-0.5c-0.4,0.1-0.6,0-0.6-0.3s0.8-0.4,2.3-0.4c1.8,0,3.2,0.4,4.4,1.3l0,0.2v0.1l-0.1,0.1c0.8,0.2,1.3,0.4,1.3,0.6
		c0.9,1.1,1.4,1.9,1.6,2.6c0.2,0.7,0.4,1.6,0.6,2.7l0.7,1.5c-0.6,0.7-0.9,1.3-1,1.8c-0.3,1.1-1,2.4-2.1,3.8
		c-1.3,1.6-3.1,2.5-5.3,2.6c-1.1,0-2.3-0.3-3.7-0.8c-1-0.5-1.5-1-1.5-1.3v0l0.1-0.3c-0.8-0.1-1.2-0.3-1.2-0.6c-1.2-1.6-1.9-3-2-4.2
		l-0.3-1.9l-0.8-1.3c0.6-1,1-2,1.3-3c0.7-1.5,1.4-2.8,2.4-3.8C370.5,434.6,372,434,373.8,434z"/>
	<path d="M381.7,433.5c0.6-0.8,1.3-1.3,2-1.5s1.6-0.1,2.7,0.2s2.2,1.1,3.4,2.2s2.3,2.6,3.4,4.4s2.7,4.6,4.7,8.4l0.2-8.9
		c-0.1-1.2-0.3-1.8-0.6-2s-0.8-0.4-1.6-0.7v-1l1,0.1l1.3,0.2c0.8-0.2,2.3-0.4,4.6-0.4l-0.1,0.7c-0.7,0.1-1.2,0.3-1.5,0.5
		s-0.6,0.9-0.8,2l-0.1,14.4c0.6,1.5,1.2,2.5,1.6,3.1s0.9,1,1.3,1s0.8-0.1,1.1-0.3s0.6-0.4,0.8-0.3s0.3,0.3,0.2,0.7s-0.3,0.7-0.6,0.9
		s-0.9,0.4-1.8,0.3s-1.6-0.3-2.3-0.7s-1.6-1.2-2.7-2.4s-1.6-2.1-1.4-2.6l0.5-0.5l-0.2-0.7l-0.6,0.1l-0.2,0.3l-0.2,0.2h-0.5v-0.3
		c-1.8-3.3-3.9-7.2-6.4-11.7l0.2,10.6c0.1,1.1,0.3,1.7,0.4,1.8s0.7,0.2,1.5,0.3l-0.1,1H385l0.1-0.7c0.6-0.3,1-0.4,1.2-0.6
		s0.4-0.8,0.5-1.9l0.2-6.6l-0.3-3.5l0-3.4c-0.4-0.9-0.9-1.5-1.4-1.8s-1.1-0.6-1.5-0.8S382.6,433.5,381.7,433.5z"/>
	<path d="M412.4,434c1,0,2.4,0.1,4.2,0.3v0.1c-1.2,0.7-2.4,1.1-3.7,1.1c-1.5,0.3-2.2,0.5-2.2,0.6c-0.5,0.2-1,0.8-1.4,1.7
		c-0.8,1.4-1.2,3.2-1.2,5.5v0.2c0,2.4,0.4,4.2,1.3,5.3c0.9,1.5,1.9,2.4,2.8,2.7c0.3,0.1,0.6,0.2,0.9,0.3s0.7,0,1.2-0.2
		s1.1-0.5,1.9-1c0.1-0.3,0.3-0.5,0.7-0.5h0v-0.5l0-0.2c0.9-1.2,1.3-2.8,1.3-4.6l0-0.7c0-2.1-0.4-3.7-1.3-4.9c-0.9-1.4-1.9-2.1-3-2.3
		l-2.3-0.5c-0.4,0.1-0.6,0-0.6-0.3s0.8-0.4,2.3-0.4c1.8,0,3.2,0.4,4.4,1.3l0,0.2v0.1l-0.1,0.1c0.8,0.2,1.3,0.4,1.3,0.6
		c0.9,1.1,1.4,1.9,1.6,2.6c0.2,0.7,0.4,1.6,0.6,2.7l0.7,1.5c-0.6,0.7-0.9,1.3-1,1.8c-0.3,1.1-1,2.4-2.1,3.8
		c-1.3,1.6-3.1,2.5-5.3,2.6c-1.1,0-2.3-0.3-3.7-0.8c-1-0.5-1.5-1-1.5-1.3v0l0.1-0.3c-0.8-0.1-1.2-0.3-1.2-0.6c-1.2-1.6-1.9-3-2-4.2
		l-0.3-1.9l-0.8-1.3c0.6-1,1-2,1.3-3c0.7-1.5,1.4-2.8,2.4-3.8C409.1,434.6,410.6,434,412.4,434z"/>
	<path d="M434.9,434.2c1.6,0.2,2.8,0.7,3.7,1.3c0.4,0.4,0.6,0.7,0.6,0.9l0.5-0.1l3,3.6v0.1c-0.2,0.4-0.4,1.2-0.5,2.5
		c-0.4,1.2-1.1,2.2-2.3,3.1l-0.2,0.3c0.1,0,0.5,0.4,1,1.1v0.1l-0.1,0.5l0.8,0.6l0.2-0.3h0.1c1.1,1.1,2,2.2,2.6,3.4
		c0.5,1.3,1.5,2.8,3,4.4c0.8,0.5,1.4,0.8,1.7,0.8l2.5-0.5h0.1l0.3,0.1v0.3c-0.7,1-1.8,1.5-3.2,1.5c-1.8,0.1-3.3-0.6-4.7-2.1
		c-1.8-1.9-3-3.4-3.6-4.5l-2.9-4.3l-1.4,0.1h-1.6L434,447l-0.2,0.1v2.6c0,0.1-0.2,0.2-0.5,0.2v0.3c0,0.1,0.1,0.2,0.4,0.2
		c0,1,0.3,1.7,1,2.1l0.8,0.1v0.7l-2.7-0.2c-0.7,0-2.1,0.4-3.9,1.1V454l-0.1-0.8c1,0,1.5-0.7,1.7-2.2v-7l0.1-3.1
		c0-0.9-0.4-1.3-1.2-1.3h-0.1c-0.1-0.1-0.1-0.4-0.1-0.6s0.1-0.4,0.3-0.4c2.7,0.2,4.6,0.2,5.8,0.1v0.9h-0.7c-0.6,0.5-0.9,1.4-0.9,2.6
		v0.9l-0.1,2.5l0.2,0.1c2.5,0,3.8-0.4,4.1-1.1c0.7-0.5,1.1-1.4,1.1-3c0-2.1-0.6-3.6-1.8-4.4c-1-0.7-2.2-1-3.7-1.1
		c-2.2,0.1-4.7,0.4-7.6,1l-0.5,0.1c-1-0.2-1.5-0.4-1.5-0.5l-0.9-2.3h0.1c1,0.6,2.3,0.8,3.9,0.8c0.8,0,2.1-0.2,3.8-0.5
		S433.8,434.1,434.9,434.2z"/>
	<path d="M462,439.1c0.1,0,0.2,0.1,0.2,0.3l-0.1,0.9c0.1,0,0.1,0.1,0.1,0.4h0.2c0.6,0.1,1.2,0.3,1.8,0.8c0-0.1,0.1-0.2,0.4-0.2
		c0-0.2,0.2-0.4,0.6-0.7h0.2c0.1,0.1,0.2,0.2,0.2,0.4c-0.4,0.2-0.7,0.5-0.9,0.8h-0.1c0.4,0.5,0.7,1.1,0.9,2.1c0.2,0,0.3,0,0.3,0.1
		l0.9-0.1l0.1,0.2v0.3c0,0.1-0.1,0.2-0.2,0.2l-0.9-0.1c0,0.1-0.1,0.2-0.3,0.2c0,0.5-0.3,1.2-0.8,2c0.2,0,0.3,0.1,0.3,0.4
		c0.4,0.2,0.6,0.4,0.6,0.6c-0.1,0.2-0.2,0.3-0.3,0.4h-0.2l-0.6-0.7c-0.2,0-0.3-0.1-0.3-0.2c-0.8,0.6-1.4,0.8-2.1,0.8l0.1,0.1v0.2
		l-0.1,0.2l0.1,0.9l-0.1,0.1h-0.4l-0.2-0.2l0.2-0.8c-0.1,0-0.2-0.1-0.2-0.4c-0.7-0.1-1.4-0.4-2.1-0.8c0,0.1-0.2,0.3-0.5,0.4
		c0,0.1-0.1,0.3-0.4,0.5h-0.1l-0.3-0.3v-0.2l0.7-0.6l0.1-0.4c-0.3-0.3-0.6-0.9-0.8-1.9l-0.4-0.2l-0.9,0.1l-0.1-0.1V444l0.2-0.1
		l0.9,0.1c0-0.1,0.1-0.1,0.4-0.1c0-0.6,0.3-1.3,0.8-2c0-0.1-0.3-0.5-0.8-0.9v-0.2l0.2-0.2h0.2l0.6,0.7l0.1-0.1h0.1
		c0.1,0,0.1,0.1,0.1,0.2h0.1c0.7-0.5,1.3-0.8,2-0.8c0-0.2,0-0.4,0.2-0.4l-0.2-1L462,439.1z M459.2,443.9l0.4,0.1l0.6-0.1l0.9,0.1
		l0.1-0.1v-0.1l-1.4-1.3C459.5,442.8,459.3,443.2,459.2,443.9z M460.6,444.4h-1.4c0,0.5,0.2,1,0.7,1.5c0-0.1,0.4-0.6,1.3-1.4v-0.1
		l-0.1-0.1v-0.1L460.6,444.4z M460.2,442.2c0.8,0.8,1.2,1.2,1.2,1.4h0.1l0.2-0.2l-0.1-0.9l0.1-0.4l-0.1-0.5
		C461.2,441.5,460.7,441.7,460.2,442.2z M461.4,444.9l-1.2,1.4c0.5,0.4,1,0.6,1.4,0.6h0.1l0.1-0.4l-0.1-0.6l0.2-0.8H461.4
		L461.4,444.9z M462.1,441.5L462.1,441.5l0.1,0.2l-0.1,0.4v0.9l-0.1,0.5l0.1,0.1h0.3c0-0.2,0.4-0.6,1.2-1.4
		C463.6,442,463.1,441.8,462.1,441.5z M462,444.9l0.1,0.5v1.4h0.1c0.5,0,0.9-0.2,1.4-0.6l-1.4-1.3L462,444.9z M463.8,442.5
		c0,0.2-0.4,0.6-1.3,1.4l0.1,0.2l1-0.1l0.6,0.1l0.4-0.1c0-0.3-0.2-0.8-0.6-1.4H463.8z M462.6,444.4l-0.1,0.3l1.4,1.3
		c0.4-0.6,0.6-1.1,0.6-1.5h-1.4L462.6,444.4z"/>
	<path d="M491.3,434.1c0.2,1.5,0.6,3.2,1.3,5l-1.2,0.1c-0.3-0.7-0.8-1.3-1.6-1.9s-1.5-0.9-2.3-1.1s-1.5-0.3-2.1-0.1s-1.2,0.5-1.6,1
		s-0.4,1.1,0,1.6s0.5,0.9,0.4,1.1l-0.1,0.3l0.2,0.1l0,0.2l0.1,0.1l0,0.1l0.2,0.2l0-0.1l0.1,0l0.1,0l0.1,0.1l0.1-0.1l0.1,0l0-0.1
		l0.1-0.1h0.1l0.1-0.1l0.1,0l0.1-0.1l0.2-0.1l0.7,0.4c0.4,0.3,1.3,0.7,2.5,1.2s2.2,1.2,2.9,2.1s1.5,2.1,2.3,3.7l-0.6,1.3
		c-0.4,1-1,1.9-1.6,2.5s-1.5,1.2-2.5,1.7s-2,0.7-2.9,0.8s-1.8,0-2.5-0.1s-1.5-0.5-2.4-1.1s-1.4-1.2-1.7-1.9s-0.3-1.3,0-1.9
		s0.6-1.2,1.2-1.7s1.1-0.8,1.6-0.9s1-0.2,1.4-0.1c0.1,0.8,0.2,1.5,0.4,2.2c-0.8-0.2-1.5-0.2-1.9-0.1s-0.8,0.5-0.9,1s0,1.1,0.4,1.7
		s0.9,1,1.3,1.2s1.1,0.4,1.8,0.5s1.4,0,2.1-0.1s1.3-0.5,1.9-1.1s1-1.1,1.1-1.7l0.5-0.5l-0.2-0.7c-0.1-0.1-0.3-0.3-0.4-0.8
		c-0.2-0.7-1.4-1.6-3.5-2.8c-2.2-0.9-3.6-1.7-4.3-2.3s-1.2-1.2-1.5-1.8s-0.6-1.2-0.8-1.7l0.6-0.8c0.2-0.5,0.5-1,0.8-1.6
		s0.9-1.1,1.4-1.5s1.1-0.7,1.6-0.8s1.2-0.2,2-0.2s1.5,0,2.1,0.1s1.2,0,1.8-0.2L491.3,434.1z"/>
	<path d="M490.6,434.2L490.6,434.2c0.5,0.4,2,0.7,4.6,0.9l6.5-0.7h2.2c2.2,0,4.1,0.8,5.7,2.3c0.7,0.8,1.1,1.6,1.4,2.2
		c0.5,0.2,0.8,0.4,0.8,0.5l-0.8,1.3c0,1.6-0.9,3.1-2.6,4.4c-1.7,0.8-3,1.2-4.1,1.2h-0.5l-2.4-0.2l-0.1,2.3v0.1l-0.2,0.3l0.2,0.5
		c-0.3,0.1-0.5,0.1-0.5,0.2l0.1,0.3h0.1l0.3-0.2h0.1c0.2,1.8,0.6,2.7,1.4,2.7l0.4-0.1h0.5l0.1,0.8l-0.7,0.1h-2.7
		c-0.9,0-2.3,0.2-4.1,0.7c-0.3-0.4-0.4-0.7-0.4-0.8h0.1c1.4-0.5,2.1-1.1,2.1-1.8l0.1-0.9v-11c-0.6-0.6-1.2-0.9-1.6-1.1v-0.4
		c0.1-0.2,0.3-0.3,0.5-0.3l1.9,0.2h0.4l4-0.2l0.1,0.5c-0.8,0-1.5,0.6-1.9,1.7c-0.2,0.3-0.2,0.6-0.2,1v1.7c-0.1,0.2-0.2,0.3-0.2,0.5
		c0.2,0.1,0.3,0.2,0.3,0.5v0.1c-0.2,0.2-0.3,0.4-0.3,0.6c0.2,0,0.3,0.2,0.3,0.6l0.1,0.1h0.1l2.3,0.1c1.4,0,2.5-0.8,3.4-2.4
		c0.2-1,0.3-1.7,0.3-2.3c-0.2-1.4-0.6-2.2-1-2.4l-0.1-0.1l0.5,0l0.3-0.3l-0.1,0.1l-0.2-0.5l-0.4-0.2l-0.1,0.3l-0.4,0l-0.1,0.2h-0.1
		c-1-1-2.3-1.5-3.7-1.5c0-0.1-0.4-0.1-1.1-0.1c-1.6,0-4,0.5-7.3,1.4h-0.5c-1.2-0.1-1.8-0.4-1.8-0.6L490.6,434.2z"/>
	<path d="M512.9,434.6l3.9,0.1l0.8,0.6l0.5-0.4l1.8-0.1l-0.2,0.8c-0.6,0.1-1,0.4-1.2,0.7s-0.3,1.1-0.4,2.3v2.7l-0.2,0.6h-0.4
		l-0.7,0.9l0.4,0.5v0.5l0.6,0.3h0.3v0.6l0.2,5.8c0.1,0.9,0.4,1.4,0.9,1.8l0.9,0.2v0.8c-2.3-0.1-4.5-0.1-6.8,0l-0.1-1
		c0.6-0.1,0.9-0.2,1.1-0.5s0.3-0.7,0.3-1.5l-0.1-12.6c-0.2-0.7-0.4-1.2-0.6-1.5s-0.6-0.4-1.2-0.4L512.9,434.6z"/>
	<path d="M532.9,434.2c1.6,0.2,2.8,0.7,3.7,1.3c0.4,0.4,0.6,0.7,0.6,0.9l0.5-0.1l3,3.6v0.1c-0.2,0.4-0.4,1.2-0.5,2.5
		c-0.4,1.2-1.1,2.2-2.3,3.1l-0.2,0.3c0.1,0,0.5,0.4,1,1.1v0.1l-0.1,0.5l0.8,0.6l0.2-0.3h0.1c1.1,1.1,2,2.2,2.6,3.4
		c0.5,1.3,1.5,2.8,3,4.4c0.8,0.5,1.4,0.8,1.7,0.8l2.5-0.5h0.1l0.3,0.1v0.3c-0.7,1-1.8,1.5-3.2,1.5c-1.8,0.1-3.3-0.6-4.7-2.1
		c-1.8-1.9-3-3.4-3.6-4.5l-2.9-4.3l-1.4,0.1h-1.6l-0.4-0.1l-0.2,0.1v2.6c0,0.1-0.2,0.2-0.5,0.2v0.3c0,0.1,0.1,0.2,0.4,0.2
		c0,1,0.3,1.7,1,2.1l0.8,0.1v0.7l-2.7-0.2c-0.7,0-2.1,0.4-3.9,1.1V454l-0.1-0.8c1,0,1.5-0.7,1.7-2.2v-7l0.1-3.1
		c0-0.9-0.4-1.3-1.2-1.3h-0.1c-0.1-0.1-0.1-0.4-0.1-0.6s0.1-0.4,0.3-0.4c2.7,0.2,4.6,0.2,5.8,0.1v0.9h-0.7c-0.6,0.5-0.9,1.4-0.9,2.6
		v0.9l-0.1,2.5l0.2,0.1c2.5,0,3.8-0.4,4.1-1.1c0.7-0.5,1.1-1.4,1.1-3c0-2.1-0.6-3.6-1.8-4.4c-1-0.7-2.2-1-3.7-1.1
		c-2.2,0.1-4.7,0.4-7.6,1l-0.5,0.1c-1-0.2-1.5-0.4-1.5-0.5l-0.9-2.3h0.1c1,0.6,2.3,0.8,3.9,0.8c0.8,0,2.1-0.2,3.8-0.5
		S531.9,434.1,532.9,434.2z"/>
	<path d="M543.6,434.6l3.9,0.1l0.8,0.6l0.5-0.4l1.8-0.1l-0.2,0.8c-0.6,0.1-1,0.4-1.2,0.7s-0.3,1.1-0.4,2.3v2.7l-0.2,0.6h-0.4
		l-0.7,0.9l0.4,0.5v0.5l0.6,0.3h0.3v0.6l0.2,5.8c0.1,0.9,0.4,1.4,0.9,1.8l0.9,0.2v0.8c-2.3-0.1-4.5-0.1-6.8,0l-0.1-1
		c0.6-0.1,0.9-0.2,1.1-0.5s0.3-0.7,0.3-1.5l-0.1-12.6c-0.2-0.7-0.4-1.2-0.6-1.5s-0.6-0.4-1.2-0.4L543.6,434.6z"/>
	<path d="M552.6,434.8c0.3-0.2,0.7-0.2,1.1,0l0.5,0l1.6,0c0.4,0.4,2.5,0.3,6.3-0.1l1.6,0l0.8,0l0.8,0c0.1,1.8,0.4,3.6,1,5.6
		l-0.9,0.7c-0.4-1.1-0.9-1.9-1.4-2.6s-1-1.1-1.5-1.3s-1-0.3-1.6-0.2l0,6.1l0,1.8l-0.2,1.4l-0.5,0.6l0.1,1.2l0.5,1
		c0.1,1.4,0.5,2.4,1.2,2.9l0.9,0.3v1c-1.3,0-2.5,0-3.5-0.2s-1.7-0.1-2,0s-1.2,0.2-2.5,0.2l0.1-0.9c0.6-0.3,1.3-0.8,2-1.4l-0.1-12.3
		l0.3-0.7l-0.2-1.3c-1.4-0.1-2.3,0.1-2.6,0.5s-0.7,0.8-1.1,1.3l-0.5,0.3c0,0.6,0,1.1,0,1.7l-1-0.1L552.6,434.8z"/>
</g>
</svg>
